<?xml version="1.0" encoding="utf-8"?>
<!-- Generator: Adobe Illustrator 23.0.6, SVG Export Plug-In . SVG Version: 6.00 Build 0)  -->
<svg version="1.1" id="Layer_1" xmlns:serif="http://www.serif.com/"
	 xmlns="http://www.w3.org/2000/svg" xmlns:xlink="http://www.w3.org/1999/xlink" x="0px" y="0px" viewBox="0 0 4000 4000"
	 style="enable-background:new 0 0 4000 4000;" xml:space="preserve">
<style type="text/css">
	.st0{fill-rule:evenodd;clip-rule:evenodd;fill:#FFFFFF;}
	.st1{fill-rule:evenodd;clip-rule:evenodd;fill:#FF9533;}
	.st2{fill-rule:evenodd;clip-rule:evenodd;fill:#FF7C1E;}
	.st3{fill-rule:evenodd;clip-rule:evenodd;fill:#F66D0D;}
	.st4{fill-rule:evenodd;clip-rule:evenodd;fill:#FDC539;}
	.st5{fill-rule:evenodd;clip-rule:evenodd;fill:#533597;}
	.st6{fill-rule:evenodd;clip-rule:evenodd;fill:#4C2689;}
	.st7{fill-rule:evenodd;clip-rule:evenodd;fill:#431272;}
	.st8{fill-rule:evenodd;clip-rule:evenodd;fill:#7753B9;}
	.st9{fill-rule:evenodd;clip-rule:evenodd;fill:#E4E1FA;}
	.st10{fill-rule:evenodd;clip-rule:evenodd;fill:#9E5906;}
	.st11{fill-rule:evenodd;clip-rule:evenodd;fill:#E68F26;}
	.st12{fill-rule:evenodd;clip-rule:evenodd;fill:#784405;}
	.st13{fill-rule:evenodd;clip-rule:evenodd;fill:#6A3C04;}
	.st14{clip-path:url(#SVGID_2_);}
	.st15{fill-rule:evenodd;clip-rule:evenodd;fill:#9F9FBF;}
	.st16{fill-rule:evenodd;clip-rule:evenodd;fill:#FFC532;}
	.st17{fill-rule:evenodd;clip-rule:evenodd;fill:#F7E157;}
	.st18{fill-rule:evenodd;clip-rule:evenodd;fill:#EE8626;}
	.st19{fill-rule:evenodd;clip-rule:evenodd;fill:#FFA425;}
	.st20{clip-path:url(#SVGID_4_);}
	.st21{fill-rule:evenodd;clip-rule:evenodd;fill:#97C52D;}
	.st22{fill-rule:evenodd;clip-rule:evenodd;fill:#C2E352;}
	.st23{fill-rule:evenodd;clip-rule:evenodd;fill:#669F05;}
	.st24{fill-rule:evenodd;clip-rule:evenodd;fill:#70AF05;}
	.st25{clip-path:url(#SVGID_6_);}
	.st26{fill-rule:evenodd;clip-rule:evenodd;fill:#FF4D81;}
	.st27{fill-rule:evenodd;clip-rule:evenodd;fill:#FE87C0;}
	.st28{fill-rule:evenodd;clip-rule:evenodd;fill:#C53068;}
	.st29{fill-rule:evenodd;clip-rule:evenodd;fill:#E63D6E;}
	.st30{fill-rule:evenodd;clip-rule:evenodd;fill:#AEA7DE;}
	.st31{fill-rule:evenodd;clip-rule:evenodd;fill:#C4BEF0;}
	.st32{fill-rule:evenodd;clip-rule:evenodd;fill:#694001;}
	.st33{fill-rule:evenodd;clip-rule:evenodd;fill:#563501;}
	.st34{fill-rule:evenodd;clip-rule:evenodd;fill:#ACA4E7;}
	.st35{fill-rule:evenodd;clip-rule:evenodd;fill:#F4F3FD;}
</style>
<rect class="st0" width="4000" height="4000"/>
<g>
	<g transform="matrix(1.0127,0,0,1.01846,32.6267,-106.391)">
		<g transform="matrix(0.978393,0,0,1.08281,8.70856,-16.6631)">
			<ellipse class="st1" cx="632" cy="1661.1" rx="290.4" ry="267.3"/>
		</g>
		<g transform="matrix(1.01401,0,0,1.02631,-1.86826,-7.22381)">
			<path class="st2" d="M794.4,1964.2c-8.8,7.1-18.1,13.6-27.7,19.5c-23.1,14.3-48.4,25.3-75.3,32.4c-53.1,5.2-121.1,0.4-195.2-33.7
				c-136-62.5-183.7-276.6-84.8-426.9c9-10.2,18.8-19.7,29.2-28.4c20-16.9,42.4-31,66.6-41.8c-121.9,149.1-15.1,374,95,444.5
				C662.4,1968.3,738.7,1976.2,794.4,1964.2z"/>
		</g>
		<g transform="matrix(1.01401,0,0,1.02631,-1.86826,-7.22381)">
			<path class="st3" d="M766.7,1983.8c-23.1,14.3-48.4,25.3-75.3,32.4c-53.1,5.2-121.1,0.4-195.2-33.7
				c-136-62.5-183.7-276.6-84.8-426.9c9-10.2,18.8-19.7,29.2-28.4c-42.2,61.5-107.2,198.9,9.1,364.5
				C476.1,1929.4,589.3,2024.6,766.7,1983.8z"/>
		</g>
		<g transform="matrix(1,0,0,1,0.44615,-0.861136)">
			<path class="st4" d="M834.3,1618.1c111.7,174.8-18.6,271-47.8,197.5c-28.2-71.1-23.2-76.9-94.7-134.7
				c-69.1-55.9-41.5-110.5-25.8-122.4C722.3,1515.8,811.8,1582.9,834.3,1618.1z"/>
		</g>
	</g>
	<g transform="matrix(1.15207,0,0,1.15862,139.435,-730.347)">
		<g transform="matrix(0.995591,0.0938003,-0.0938003,0.995591,73.1896,95.1354)">
			<path class="st5" d="M1145.7,1740.1c-8.1,83.1-2.4,133.2,18.2,185c-49.2,38.8-97.4,80.1-124.7,101.1
				c-33.7,25.9-78.1,32.4-70-26.6c6.4-46.6,11.1-51.1-21.4-85.2c-34-35.7,30.5-61.7-8.3-112.5c-26.7-34.9-26.9-42.2,2.2-75
				c36.6-41.3-1.6-53,8.6-90.8c9.6-35.4,55.5-3.8,68.4,4.9C1092.6,1690.3,1111.2,1709.2,1145.7,1740.1z"/>
		</g>
		<g transform="matrix(-0.995591,0.0938003,0.0938003,0.995591,587.275,98.7042)">
			<path class="st5" d="M-1073.2,1960.6c-8.1,83.1-2.4,133.2,18.2,185c-49.2,38.8-97.4,80.1-124.7,101.1
				c-33.7,25.9-78.1,32.4-70-26.6c6.4-46.6,11.1-51.1-21.4-85.2c-34-35.7,30.5-61.7-8.3-112.5c-26.7-34.9-26.9-42.2,2.2-75
				c36.6-41.3-1.6-53,8.6-90.8c9.6-35.4,55.5-3.8,68.4,4.9C-1126.4,1910.9-1107.8,1929.7-1073.2,1960.6z"/>
		</g>
		<g transform="matrix(1,0,0,1.0339,13.0496,100.385)">
			<path class="st5" d="M1431.2,1649.5c97.7-2.8,291,0.2,355.9,48.9c78.6,58.9,113.4,262.5,16,328.7c-52.9,35.9-265.3,51.7-372,46.2
				c-106.7,5.5-319.1-10.2-372-46.2c-97.4-66.2-62.5-269.8,16-328.7C1140.2,1649.7,1333.5,1646.7,1431.2,1649.5z"/>
		</g>
		<g>
			<path class="st6" d="M1255.1,1831.2c-166.9,289.2,171,388.6,592.3,294c-4.6,11.1-9.6,20.4-15.4,28.4
				c-11.4,15.6-26.3,26.2-48.9,35.5c-151.3,61.8-395.7,36.4-460.2,30.1c-85.7-8.4-141.7-18.2-179.8-32.8
				c-64.1-24.6-77.4-63.1-95.4-132.3c8.9,6.4,24,16.5,50.3,33.3c-10.3-16.5-24.8-39.9-35.3-57.7c14-20.6,16.4-24.2,29.1-42.6
				c-17.1,8.5-21.1,10.7-35.8,19c27.4-46.9,37.3-57.9,57.3-81c-21.6,8.9-29.4,12.1-41.1,18.2
				C1104.7,1876.7,1195.8,1851.4,1255.1,1831.2z"/>
			<path class="st7" d="M1143.1,2186.4c-25.1-19-42.6-44.4-59.6-81.2c13.1,7.8,30,15.6,60.4,24.4c-25.7-60.2-34.1-92.1-41.2-118.5
				c18.8-41.3,20.7-45.2,39-80.7c-6.3,63.5-7.7,209.6,160.2,246c307.5,66.5,464.1,6.3,530-22.7c-11.4,15.6-26.3,26.2-48.9,35.5
				c-151.3,61.8-395.7,36.4-460.2,30.1C1237.3,2210.8,1181.2,2201,1143.1,2186.4z"/>
			<path class="st8" d="M1641.3,1831.4c100.4,14.6,134.3,39.4,179.3,115.2c12.9,21.7,21.2,66.6-1.4,86.2c-32,27.6-49.7-42.8-50-43.6
				c-69.4-175.4-384-15.5-448.8-105.5C1263.9,1805.3,1525.3,1816.9,1641.3,1831.4z"/>
			<path class="st6" d="M1921.3,1869.1c-26.7,48.6-27.5,52-21.8,54c27.7,9.6,72.2-48.2,65.6-7c-5.6,35-60.5,65.8-0.2,85.6
				c32.2,10.6,31.6,14.2,30.1,16.5c-17.4,27.4-96.3-3.3-75.6,44.4c16.2,37.5,106.1,49.3,44.1,84c-30.6,17.1-12,59.5,69.4,88.1
				c-13.3,10.3-38.4,4.1-60.4-9.7c-20.7-13-52.8-35.3-88.5-59.2c-9-6-18.2-12.2-27.6-18.3c28.7-59.8,22.9-146.1-2.9-212.1
				c0-0.1-0.1-0.1-0.1-0.2C1871.9,1915,1888.5,1897.4,1921.3,1869.1z"/>
			<path class="st7" d="M1856.4,2147.3c28.7-59.8,22.9-146.1-2.9-212.1c28-4,25.1,24,27.3,30.6c8.3,24.8,50.6,24.9,31.5,51.7
				c-30.7,42.8-19,51.7,3.5,85.9c21.5,32.7-7.1,51.5-31.9,62.2C1875,2159.6,1865.8,2153.5,1856.4,2147.3z"/>
			<path class="st6" d="M969,1854.1c32.9,28.5,49.5,46.1,68.1,66.3c0.9,1,1.9,2.1,2.8,3.1c-28.3,63.5-37.3,150.3-12.5,213.2
				c-7.1,4.7-14.2,9.4-21.1,14.1c-35.7,24-67.9,46.2-88.5,59.2c-21.9,13.8-47.1,20.1-60.4,9.7c81.4-28.6,100-71,69.4-88.1
				c-61.9-34.7,27.9-46.6,44.1-84c20.6-47.8-58.2-17-75.6-44.4c-1.5-2.3-2.1-5.9,30.1-16.5c60.3-19.8,5.3-50.6-0.2-85.6
				c-6.5-41.1,37.9,16.6,65.6,7C996.5,1906,995.8,1902.6,969,1854.1z"/>
			<path class="st7" d="M1037.1,1920.3c0.9,1,1.9,2.1,2.8,3.1c-28.3,63.5-37.3,150.3-12.5,213.2c-7.1,4.7-14.2,9.4-21.1,14.1
				c-24.8-10.7-53.4-29.5-31.9-62.2c22.5-34.2,34.2-43,3.5-85.9c-19.2-26.8,23.1-26.8,31.5-51.7
				C1011.7,1944.3,1008.8,1916,1037.1,1920.3z"/>
			<g transform="matrix(1,0,0,1,-0.132412,0.811581)">
				<path class="st8" d="M947.8,1858.3c-4.7-14.3-45.1-51.1-63.8-30.5c-8.5,9.4,17.7,27.7,38.3,36.5
					C933.5,1869.1,947.7,1866.9,947.8,1858.3z"/>
			</g>
			<g transform="matrix(-1,0,0,1,661.464,4.10727)">
				<path class="st8" d="M-1284.8,1868.9c-4.7-14.3-45.1-51.1-63.8-30.5c-8.5,9.4,17.7,27.7,38.3,36.5
					C-1299.1,1879.7-1284.9,1877.5-1284.8,1868.9z"/>
			</g>
			<path class="st8" d="M885.8,1886.9c-15.3,9.4-15.3,19.7-32.5,31.6c-26.4,18.2-7,25.6-2.7,24.9c14-2.2,21-13.9,25.8-20
				c23-29.2,37-33.7,31-40.8C902.4,1876.8,887.3,1886,885.8,1886.9z"/>
			<g transform="matrix(-1,0,0,1,661.332,3.29568)">
				<path class="st8" d="M-1346.9,1897.5c-15.3,9.4-15.3,19.7-32.5,31.6c-26.4,18.2-7,25.6-2.7,24.9c14-2.2,21-13.9,25.8-20
					c23-29.2,37-33.7,31-40.8C-1330.2,1887.3-1345.4,1896.6-1346.9,1897.5z"/>
			</g>
			<path class="st8" d="M953.8,2032.7c-12-3.7-13.6,0-32.1-4.5c-42.2-10.1-95.1,26.6-69.4,42.1c15.3,9.2,48.5-14.7,56.2-18.1
				C932.7,2041.7,970.5,2044.9,953.8,2032.7z"/>
			<g transform="matrix(-1,0,0,1,661.332,3.29568)">
				<path class="st8" d="M-1278.8,2043.3c-12-3.7-13.6,0-32.1-4.5c-42.2-10.1-95.1,26.6-69.4,42.1c15.3,9.2,48.5-14.7,56.2-18.1
					C-1300,2052.2-1262.1,2055.4-1278.8,2043.3z"/>
			</g>
			<path class="st8" d="M869.5,2091.9c-9.5-5.3,5.6,24.6,7.6,45.9c1.5,16-6.6,28.4-4.9,31.5c2.6,6.7,10.2,3.7,20.9-2.2
				c35.3-19.4,7.4-37.9,5.1-40.1c-11.6-11.3-7.6-6.4-16.2-20.1C877,2099.1,875.7,2095.3,869.5,2091.9z"/>
			<g transform="matrix(-1,0,0,1,661.332,3.29568)">
				<path class="st8" d="M-1363.1,2102.4c-9.5-5.3,5.6,24.6,7.6,45.9c1.5,16-6.6,28.4-4.9,31.5c2.6,6.7,10.2,3.7,20.9-2.2
					c35.3-19.4,7.4-37.9,5.1-40.1c-11.6-11.3-7.6-6.4-16.2-20.1C-1355.6,2109.7-1356.9,2105.9-1363.1,2102.4z"/>
			</g>
		</g>
		<g transform="matrix(0.83381,0,0,0.819188,60.7643,238.625)">
			<path class="st9" d="M1548.9,2268.8c-58.9-30.6-97.9-83.3-97.9-143.2c0-94.4,96.8-171,216-171s216,76.6,216,171
				c0,59.9-39,112.6-97.9,143.2c15.9,37.4,26.1,63.2,6.5,78.3c-28.4,21.9-43.7-23.8-45.1-28.2c-0.6-1.7-3.4-22.9-13.4-19.6
				c-19.5,6.5,5,59.1-4.9,69c-10.9,10.8-44.3,21.8-49.2-19.7c-1-8.6-0.6-23.2-11.9-28.6c-11.3,5.4-10.9,20-11.9,28.6
				c-4.9,41.4-38.3,30.5-49.2,19.7c-10-9.9,14.6-62.5-4.9-69c-10-3.3-12.9,17.9-13.4,19.6c-1.5,4.4-16.7,50-45.1,28.2
				C1522.8,2332,1533,2306.2,1548.9,2268.8z M1678.9,2208.2c-9.1,0.4-17.8,10.4-22.5,17c-6.7,9.2-26.6,29.8-9.6,41.8
				c7.8,5.6,18-2.7,25.5-9.9c3.9-3.7,9.4-3.8,13.3,0c7.5,7.2,17.7,15.5,25.6,10c16.9-12-3.1-35.3-10.4-43.8
				C1696.3,2218.2,1688.3,2207.8,1678.9,2208.2z M1609.6,2060.1c-35.8-6.5-71.6,25.9-80,72.2s13.9,89.1,49.7,95.6
				c35.8,6.5,71.6-25.9,80-72.2C1667.7,2109.4,1645.4,2066.6,1609.6,2060.1z M1742.1,2069c-29.1,5.2-47.1,40.5-40.2,78.7
				c6.9,38.2,36.1,65,65.2,59.7c29.1-5.2,47.1-40.5,40.2-78.7C1800.4,2090.6,1771.2,2063.8,1742.1,2069z"/>
		</g>
	</g>
	<g transform="matrix(1.1571,0,0,1.16367,-207.669,-303.666)">
		<g transform="matrix(1,0,0,1,37.0802,28.5972)">
			<g transform="matrix(0.994537,0,0,0.974845,64.8609,98.7793)">
				<ellipse class="st1" cx="2020.7" cy="928.8" rx="347.1" ry="342.2"/>
			</g>
			<g transform="matrix(1,0,0,1,62.8557,96.6337)">
				<path class="st10" d="M1908.8,631.3c32.1-11.5,66.7-17.8,102.8-17.8c25.4,0,50,3.1,73.6,8.9c-24.6,21.8-51.4,61.6-32.4,128.5
					c26.9,94.6,14.9,128-43.6,178.4c13.8-45.5,21.8-61.9-54.8-126.8C1935.6,786.5,1870.8,711.8,1908.8,631.3z"/>
			</g>
			<g transform="matrix(1,0,0,1,62.8557,96.6337)">
				<path class="st10" d="M2103.7,1187.5c-29,9.2-59.9,14.1-92,14.1c-22.6,0-44.6-2.5-65.8-7.1c3.9-8.4,7-17.8,8.9-28.3
					c2.5-14.8,2.5-31.8-1.2-51.4c-0.3-1.6-0.6-3.3-1-5c-6.2-28.6-9.2-52-8.6-72c1.2-47.3,22-75.6,65.3-108.4
					c-16.7,44.6-27.4,65.5,44.8,135.2c1.8,1.8,4.2,4.2,6.8,7.3c9.7,11.3,23.4,30.9,32.8,55.2c4.4,11.4,7.8,23.7,9.4,36.8
					C2103.9,1171.5,2104.2,1179.5,2103.7,1187.5z"/>
			</g>
			<g transform="matrix(1,0,0,1,62.8557,96.6337)">
				<path class="st10" d="M1740.2,1032.8c-18.3-38-28.5-80.4-28.5-125.2c0-16.3,1.4-32.3,4-47.9c6.3,5.3,13.4,10.3,21.7,14.4
					c9.1,4.6,19.5,8.2,31.3,10.1c15.7,2.6,33.9,2.3,55-2.5c1.2-0.3,2.4-0.6,3.7-0.9c95.5-23.5,133.5-11.9,181.9,48.5
					c-44.9-15.4-66.1-22.4-133.3,51.1c-0.2,0.2-0.4,0.4-0.6,0.6c-7.3,8.1-26.4,24.6-52.2,37.1c-13.7,6.6-29.3,12.1-46,14.6
					C1765.3,1034.5,1752.9,1034.7,1740.2,1032.8z"/>
			</g>
			<g transform="matrix(1,0,0,1,62.8557,96.6337)">
				<path class="st10" d="M2297.7,975c-5.6,17.4-12.8,34.1-21.5,49.8c-2.1-1.7-4.2-3.4-6.5-5c-8-5.7-17.4-10.7-28.2-14.3
					c-17-5.7-37.6-8.1-62.8-5.1c-97.7,11.7-128.8-5.3-169.5-71.1c42.8,20.8,57.8,31.2,133.9-34.1c0,0,0.1-0.1,0.1-0.1
					c15.7-13.5,76.9-52.1,139.5-35.2c8.9,2.4,17.9,6,26.7,10.9c1.1,8.5,1.8,17.1,2.1,25.8c-0.1,1.8-0.1,3.6-0.2,5.3
					C2309.8,927.4,2305.2,951.8,2297.7,975z"/>
			</g>
		</g>
		<g transform="matrix(1,0,0,1,37.0802,28.5972)">
			<g transform="matrix(1,0,0,1,62.8557,96.6337)">
				<path class="st2" d="M2297.7,975c-37.4,115.9-145.7,199.7-273.2,199.7c-158.5,0-287.3-129.5-287.3-289.1
					c0-75.7,29-144.7,76.4-196.3c4-4.3,8.1-8.5,12.3-12.6c12.4-9.6,25.5-18.2,39.4-25.8c-32.3,44-51.5,98.7-51.5,157.9
					c0,145.2,115.2,263.1,257,263.1c109.9,0,203.7-70.7,240.5-170C2309.8,927.4,2305.2,951.8,2297.7,975z"/>
			</g>
			<g transform="matrix(1,0,0,1,62.8557,96.6337)">
				<path class="st3" d="M2297.7,975c-37.4,115.9-145.7,199.7-273.2,199.7c-158.5,0-287.3-129.5-287.3-289.1
					c0-75.7,29-144.7,76.4-196.3c-29.9,45.1-47.3,99.3-47.3,157.6c0,156.7,125.8,283.9,280.8,283.9
					C2156.5,1130.9,2251.4,1067.5,2297.7,975z"/>
			</g>
			<g transform="matrix(1,0,0,1,62.8557,96.6337)">
				<path class="st4" d="M2282.6,860c11.8,86.9-24.1,115-67.8,123c-64.4,11.8-65.6-59.9-71-84.4c-0.2-1.1-0.5-2.3-0.8-3.4
					c-12.6-52.5-46-89.7-54.1-101.1c-47.9-66.8,10.3-106.1,47.4-105.6c74.9,0.9,114.7,67.2,138.3,130.9
					C2278.4,834.2,2281,847.7,2282.6,860z"/>
			</g>
			<path class="st11" d="M2345.5,956.6c11.8,86.9-24.1,115-67.8,123c-64.4,11.8-65.6-59.9-71-84.4c-0.3-1.1-0.5-2.2-0.8-3.4l0.1-0.1
				C2221.7,978.4,2282.9,939.7,2345.5,956.6z"/>
			<path class="st12" d="M1840,1129.4c-25.4-43.1-40-93.4-40-147.1c0-3.9,0.1-7.7,0.2-11.6c9.1,4.6,19.5,8.2,31.3,10.1
				c15.7,2.6,33.9,2.3,55-2.5c10.4,36.9,28.4,70.4,52.2,98.7l-0.6,0.6c-7.4,8.1-26.4,24.6-52.2,37.1
				C1872.3,1121.4,1856.7,1126.9,1840,1129.4z"/>
			<path class="st13" d="M1840,1129.4c-25.4-43.1-40-93.4-40-147.1c0-3.9,0.1-7.7,0.2-11.6c9.1,4.6,19.5,8.2,31.3,10.1
				c6.5,49.9,25.8,95.7,54.4,134C1872.3,1121.4,1856.7,1126.9,1840,1129.4z"/>
			<path class="st12" d="M2156.4,1223.7c4.4,11.4,7.8,23.7,9.4,36.8c-25,7.1-51.3,11-78.5,11c-24,0-47.4-3-69.7-8.6
				c2.5-14.8,2.5-31.8-1.2-51.4c-0.3-1.6-0.6-3.3-1-5c-6.2-28.6-9.2-52-8.6-72c34.7,20.2,74.5,32.4,116.9,34
				C2133.3,1179.8,2147.1,1199.4,2156.4,1223.7z"/>
			<path class="st13" d="M2156.4,1223.7c4.4,11.4,7.8,23.7,9.4,36.8c-25,7.1-51.3,11-78.5,11c-24,0-47.4-3-69.7-8.6
				c2.5-14.8,2.5-31.8-1.2-51.4c29.2,10.4,60.7,16.1,93.5,16.1C2125.7,1227.6,2141.3,1226.2,2156.4,1223.7z"/>
			<path class="st12" d="M2374.1,998.7c-1.4,25.3-6.1,49.8-13.6,73c-5.6,17.4-12.8,34.1-21.5,49.8c-2.1-1.7-4.2-3.4-6.5-5
				c-8-5.7-17.4-10.7-28.3-14.3C2335.1,1074.2,2359.2,1038.8,2374.1,998.7z"/>
			<path class="st13" d="M2360.5,1071.7c-5.6,17.4-12.8,34.1-21.5,49.8c-2.1-1.7-4.2-3.4-6.5-5
				C2343.2,1102.5,2352.6,1087.5,2360.5,1071.7z"/>
		</g>
	</g>
	<g transform="matrix(0.913464,0,0,0.918655,-46.8163,-152.113)">
		<g transform="matrix(1,0,0,1.28349,-3.46603,-155.514)">
			<g>
				<defs>
					<path id="SVGID_1_" d="M2110.4,3141c0.1,5.7-2.5,11.1-7.1,15.1c-4.7,4-11,6.3-17.7,6.3h-36.5c-6.7,0-13-2.3-17.7-6.3
						c-4.7-4-7.2-9.5-7.1-15.1l14.1-739.1h58L2110.4,3141z"/>
				</defs>
				<use xlink:href="#SVGID_1_"  style="overflow:visible;fill-rule:evenodd;clip-rule:evenodd;fill:#CDC8E5;"/>
				<clipPath id="SVGID_2_">
					<use xlink:href="#SVGID_1_"  style="overflow:visible;"/>
				</clipPath>
				<g class="st14">
					<g transform="matrix(1,0,0,0.779124,3.46603,121.164)">
						<path class="st15" d="M2063.8,2903.5l-2.3,1035l-91.9-35.1l16-1006.8L2063.8,2903.5z"/>
					</g>
				</g>
			</g>
		</g>
		<g transform="matrix(1,0,0,1,-4.21414,-7.2781)">
			<g transform="matrix(1,0,0,1,-20.7059,2.61447)">
				<ellipse class="st16" cx="2071" cy="2667.2" rx="331.4" ry="316.6"/>
			</g>
			<g transform="matrix(0.98556,0,0,1,-1.32526,-4.02851)">
				<path class="st16" d="M1723.5,2640.1c1.6-8.7,6.8-16.2,14.3-20.8c7.5-4.6,16.6-5.8,25-3.4c201.1,58.1,412.7,61.9,637.5-2.5
					c8.4-2.4,17.4-1.2,24.8,3.3c7.4,4.5,12.6,12,14.3,20.5c5,25.3,6.9,57.4-3.9,96.4c-2.9,10.3-10.8,18.4-21,21.4
					c-235.3,69.4-456.3,64.1-665.9-0.2c-10.1-3.1-17.9-11.2-20.8-21.4C1717.5,2696,1718.9,2664.9,1723.5,2640.1z"/>
			</g>
			<path class="st17" d="M2316.6,2510.4c-21-42.1-136.7-135-219.3-130.5c-47.6,2.6-38.4,68.8,45.8,100.8
				c102.6,38.9,47.8,84.6,70.8,115C2256.9,2652.2,2382.9,2606.5,2316.6,2510.4z"/>
			<path class="st18" d="M1730.7,2753.5c-2.9-0.9-5.8-1.8-8.7-2.7c-10-3.1-17.7-11.2-20.5-21.4c-10.1-37.5-8.8-68.6-4.2-93.3
				c1.3-7.1,5-13.5,10.4-18.1c0.7,18.8,3.3,39.1,11.4,58.9c15.9,39.2,53,76.5,137.5,96.4c30.2,7.1,66.5,12,110,14
				c10,0.5,19.8,0.8,29.4,1.1c182.1,4.8,305.6-25.4,378.2-51.5c9.3-3.4,17.8-6.7,25.5-9.8c-0.2,0.9-0.5,1.8-0.7,2.7
				c-2.8,10.3-10.7,18.4-20.7,21.4c-2.8,0.8-5.5,1.6-8.3,2.5c-124.9,36.5-245.8,51.3-363,46.8c-48.5-1.8-96.3-7-143.6-15.2
				c-32.1-5.6-63.9-12.6-95.5-21C1755.5,2760.8,1743.1,2757.3,1730.7,2753.5z"/>
			<path class="st17" d="M2375.4,2608.3c4.7,0.4,9.2,1.9,13.3,4.4c7.3,4.5,12.4,12,14.1,20.5c3.9,19.8,5.9,43.9,1.4,72.2
				c-8.1,4.8-17,7.8-25.9,9.5c-34.7,6.4-71.4-8-80.3-22.4c-46.7-75.9-108.6,9.4-316.3-8.8c-53.5-4.7-116.7-16.2-191.7-39.1
				c-41.7-12.7-57.3-16.3-65.3-33.4c0-0.1,0.1-0.3,0.1-0.4c3.8-0.3,7.6,0,11.3,1.1c71.7,21.2,144.9,34.9,219.5,41.1
				c131.5,10.8,267.6-2.3,408.8-43.6C2367.9,2608.3,2371.7,2608,2375.4,2608.3z"/>
			<path class="st19" d="M2317.8,2856.7c-19.4,25.3-42.7,47.8-69,66.7c-13.4,9.6-27.7,18.3-42.6,25.9
				c-71.4,18.6-134.2,20.5-220.5-3.1c-129.2-35.2-196.2-142.1-217.7-182c31.6,8.4,63.4,15.4,95.5,21c47.2,8.2,95.1,13.4,143.6,15.2
				c20.5,20.8,67.3,59.1,150.1,68.8C2215,2876,2273.2,2867.3,2317.8,2856.7z"/>
			<path class="st18" d="M2248.8,2923.3c-13.4,9.6-27.7,18.3-42.6,25.9c-71.4,18.6-134.2,20.5-220.5-3.1
				c-129.2-35.2-196.2-142.1-217.7-182c31.6,8.4,63.4,15.4,95.5,21c21.8,36.1,70.6,101.8,155.3,128.6
				C2107.2,2941.7,2169,2940.7,2248.8,2923.3z"/>
			<path class="st19" d="M1752.1,2595c17.6-68.8,51.4-116,89.4-149.5c34-29.9,71.5-48.8,104-62.2c-45.4,65.6-50.5,151.8-15.2,227.1
				c3.1,6.6,6.5,13.1,10.2,19.5c4.6,7.9,9.6,15.6,15,23.1c-46.4-3.8-92.3-10.7-137.6-20.3c-23.6-5-47-10.9-70.3-17.4
				c0.9-4.5,1.9-8.9,2.9-13.3C1750.9,2599.6,1751.5,2597.3,1752.1,2595z"/>
			<path class="st18" d="M1752.1,2595c17.6-68.8,51.4-116,89.4-149.5c-25.2,57.1-30.3,110.3-27.3,154.9c0.2,3.7,0.6,7.4,0.9,11.1
				c0.7,7.3,1.6,14.4,2.7,21.2c-23.6-5-47-10.9-70.3-17.4c0.9-4.5,1.9-8.9,2.9-13.3C1750.9,2599.6,1751.5,2597.3,1752.1,2595z"/>
		</g>
	</g>
	<g transform="matrix(0.913464,0,0,0.918655,123.883,-153.296)">
		<g transform="matrix(1,0,0,1.28349,-3.46603,-155.514)">
			<g>
				<defs>
					<path id="SVGID_3_" d="M2709.7,3137.8c0.1,5.6-2.5,11.1-7.1,15.1c-4.7,4-11,6.3-17.7,6.3h-36.5c-6.7,0-13-2.3-17.7-6.3
						c-4.7-4-7.2-9.5-7.1-15.1l14.1-739.1h58L2709.7,3137.8z"/>
				</defs>
				<use xlink:href="#SVGID_3_"  style="overflow:visible;fill-rule:evenodd;clip-rule:evenodd;fill:#CDC8E5;"/>
				<clipPath id="SVGID_4_">
					<use xlink:href="#SVGID_3_"  style="overflow:visible;"/>
				</clipPath>
				<g class="st20">
					<g transform="matrix(1,0,0,0.779124,3.46603,121.164)">
						<path class="st15" d="M2663.1,2899.4l-2.3,1035l-91.9-35.1l16-1006.8L2663.1,2899.4z"/>
					</g>
				</g>
			</g>
		</g>
		<g transform="matrix(1,0,0,1,-4.21414,-7.2781)">
			<g transform="matrix(1,0,0,1,-20.7059,2.61447)">
				<ellipse class="st21" cx="2670.3" cy="2663.1" rx="331.4" ry="316.6"/>
			</g>
			<g transform="matrix(0.98556,0,0,1,-1.32526,-4.02851)">
				<path class="st21" d="M2331.6,2636c1.6-8.7,6.8-16.2,14.3-20.8c7.5-4.6,16.6-5.8,25-3.4c201.1,58.1,412.7,61.9,637.4-2.5
					c8.4-2.4,17.4-1.2,24.8,3.3c7.4,4.5,12.6,12,14.3,20.5c5,25.3,6.9,57.4-3.9,96.4c-2.9,10.3-10.8,18.4-21,21.4
					c-235.3,69.4-456.3,64.1-665.9-0.2c-10.1-3.1-17.9-11.2-20.8-21.4C2325.6,2691.9,2327,2660.8,2331.6,2636z"/>
			</g>
			<path class="st22" d="M2915.9,2506.3c-21-42.1-136.7-135-219.3-130.5c-47.6,2.6-38.4,68.8,45.8,100.8
				c102.6,38.9,47.8,84.6,70.8,115C2856.2,2648.1,2982.2,2602.4,2915.9,2506.3z"/>
			<path class="st23" d="M2330,2749.4c-2.9-0.9-5.8-1.8-8.7-2.7c-10-3.1-17.7-11.2-20.5-21.4c-10.1-37.5-8.8-68.6-4.2-93.3
				c1.3-7.1,5-13.5,10.4-18.1c0.7,18.8,3.3,39.1,11.4,58.9c15.9,39.2,53,76.5,137.5,96.4c30.2,7.1,66.5,12,110,14
				c10,0.5,19.8,0.8,29.4,1.1c182.1,4.8,305.6-25.4,378.2-51.5c9.3-3.4,17.8-6.7,25.5-9.8c-0.2,0.9-0.5,1.8-0.7,2.7
				c-2.8,10.3-10.7,18.4-20.7,21.4c-2.8,0.8-5.5,1.6-8.3,2.5c-124.9,36.5-245.8,51.3-363,46.8c-48.5-1.8-96.3-7-143.6-15.2
				c-32.1-5.6-63.9-12.6-95.5-21C2354.8,2756.7,2342.4,2753.1,2330,2749.4z"/>
			<path class="st22" d="M2974.7,2604.2c4.7,0.4,9.2,1.9,13.3,4.4c7.3,4.5,12.4,12,14.1,20.5c3.9,19.8,5.9,43.9,1.4,72.2
				c-8.1,4.8-17,7.8-25.9,9.5c-34.7,6.4-71.4-8-80.3-22.4c-46.7-75.9-108.6,9.4-316.3-8.8c-53.5-4.7-116.7-16.2-191.7-39.1
				c-41.7-12.7-57.3-16.3-65.3-33.4c0-0.1,0.1-0.3,0.1-0.4c3.8-0.3,7.6,0,11.3,1.1c71.7,21.2,144.9,34.9,219.5,41.1
				c131.5,10.8,267.6-2.3,408.8-43.6C2967.2,2604.2,2971,2603.8,2974.7,2604.2z"/>
			<path class="st24" d="M2917.1,2852.5c-19.4,25.3-42.7,47.8-69,66.7c-13.4,9.6-27.7,18.3-42.6,25.9
				c-71.4,18.6-134.2,20.5-220.5-3.1c-129.2-35.2-196.2-142.1-217.7-182c31.6,8.4,63.4,15.4,95.5,21c47.2,8.2,95.1,13.4,143.6,15.2
				c20.5,20.8,67.3,59.1,150.1,68.8C2814.3,2871.9,2872.5,2863.2,2917.1,2852.5z"/>
			<path class="st23" d="M2848.1,2919.2c-13.4,9.6-27.7,18.3-42.6,25.9c-71.4,18.6-134.2,20.5-220.5-3.1
				c-129.2-35.2-196.2-142.1-217.7-182c31.6,8.4,63.4,15.4,95.5,21c21.8,36.1,70.6,101.8,155.3,128.6
				C2706.5,2937.6,2768.3,2936.6,2848.1,2919.2z"/>
			<path class="st24" d="M2351.4,2590.9c17.6-68.8,51.4-116,89.4-149.5c34-29.9,71.5-48.8,104-62.2
				c-45.4,65.6-50.5,151.8-15.2,227.1c3.1,6.6,6.5,13.1,10.2,19.5c4.6,7.9,9.6,15.6,15,23.1c-46.4-3.8-92.3-10.7-137.7-20.3
				c-23.6-5-47-10.9-70.3-17.4c0.9-4.5,1.9-8.9,2.9-13.3C2350.2,2595.5,2350.8,2593.2,2351.4,2590.9z"/>
			<path class="st23" d="M2351.4,2590.9c17.6-68.8,51.4-116,89.4-149.5c-25.2,57.1-30.3,110.3-27.3,154.9c0.2,3.7,0.6,7.4,0.9,11.1
				c0.7,7.3,1.6,14.4,2.7,21.2c-23.6-5-47-10.9-70.3-17.4c0.9-4.5,1.9-8.9,2.9-13.3C2350.2,2595.5,2350.8,2593.2,2351.4,2590.9z"/>
		</g>
	</g>
	<g transform="matrix(0.913464,0,0,0.918655,291.88,-159.772)">
		<g transform="matrix(1,0,0,1.28349,-3.46603,-155.514)">
			<g>
				<defs>
					<path id="SVGID_5_" d="M3299.5,3120.1c0.1,5.7-2.5,11.1-7.1,15.1c-4.7,4-11,6.3-17.7,6.3h-36.5c-6.7,0-13-2.3-17.7-6.3
						c-4.7-4-7.2-9.5-7.1-15.1l14.1-739.1h58L3299.5,3120.1z"/>
				</defs>
				<use xlink:href="#SVGID_5_"  style="overflow:visible;fill-rule:evenodd;clip-rule:evenodd;fill:#CDC8E5;"/>
				<clipPath id="SVGID_6_">
					<use xlink:href="#SVGID_5_"  style="overflow:visible;"/>
				</clipPath>
				<g class="st25">
					<g transform="matrix(1,0,0,0.779124,3.46603,121.164)">
						<path class="st15" d="M3252.9,2876.8l-2.3,1035l-91.9-35.1l16-1006.8L3252.9,2876.8z"/>
					</g>
				</g>
			</g>
		</g>
		<g transform="matrix(1,0,0,1,-4.21414,-7.2781)">
			<g transform="matrix(1,0,0,1,-20.7059,2.61447)">
				<ellipse class="st26" cx="3260.1" cy="2640.5" rx="331.4" ry="316.6"/>
			</g>
			<g transform="matrix(0.98556,0,0,1,-1.32526,-4.02851)">
				<path class="st26" d="M2930,2613.4c1.6-8.7,6.8-16.2,14.3-20.8c7.5-4.6,16.6-5.8,25-3.4c201.1,58.1,412.7,61.9,637.4-2.5
					c8.4-2.4,17.4-1.2,24.8,3.3c7.4,4.5,12.6,12,14.3,20.5c5,25.3,6.9,57.4-3.9,96.4c-2.9,10.3-10.8,18.4-21,21.4
					c-235.3,69.4-456.3,64.1-665.9-0.2c-10.1-3.1-17.9-11.2-20.8-21.4C2924.1,2669.3,2925.4,2638.2,2930,2613.4z"/>
			</g>
			<path class="st27" d="M3505.7,2483.7c-21-42.1-136.7-135-219.3-130.5c-47.6,2.6-38.4,68.8,45.8,100.8
				c102.6,38.9,47.8,84.6,70.8,115C3446,2625.5,3572.1,2579.8,3505.7,2483.7z"/>
			<path class="st28" d="M2919.8,2726.8c-2.9-0.9-5.8-1.8-8.7-2.7c-10-3.1-17.7-11.2-20.5-21.4c-10.1-37.5-8.8-68.6-4.2-93.3
				c1.3-7.1,5-13.5,10.4-18.1c0.7,18.8,3.3,39.1,11.4,58.9c15.9,39.2,53,76.5,137.5,96.4c30.2,7.1,66.5,12,110,14
				c10,0.5,19.8,0.8,29.4,1.1c182.1,4.8,305.6-25.4,378.2-51.5c9.3-3.4,17.8-6.7,25.5-9.8c-0.2,0.9-0.5,1.8-0.7,2.7
				c-2.8,10.3-10.7,18.4-20.7,21.4c-2.8,0.8-5.5,1.6-8.3,2.5c-124.9,36.5-245.8,51.3-363,46.8c-48.5-1.8-96.3-7-143.6-15.2
				c-32.1-5.6-63.9-12.6-95.5-21C2944.6,2734.1,2932.2,2730.5,2919.8,2726.8z"/>
			<path class="st27" d="M3564.5,2581.6c4.7,0.4,9.2,1.9,13.3,4.4c7.3,4.5,12.4,12,14.1,20.5c3.9,19.8,5.9,43.9,1.4,72.2
				c-8.1,4.8-17,7.8-25.9,9.5c-34.7,6.4-71.4-8-80.3-22.4c-46.7-75.9-108.6,9.4-316.3-8.8c-53.5-4.7-116.7-16.2-191.7-39.1
				c-41.7-12.7-57.3-16.3-65.3-33.4c0-0.1,0.1-0.3,0.1-0.4c3.8-0.3,7.6,0,11.3,1.1c71.7,21.2,144.9,34.9,219.5,41.1
				c131.5,10.8,267.6-2.3,408.8-43.6C3557,2581.6,3560.8,2581.2,3564.5,2581.6z"/>
			<path class="st29" d="M3506.9,2829.9c-19.4,25.3-42.7,47.8-69,66.7c-13.4,9.6-27.7,18.3-42.6,25.9
				c-71.4,18.6-134.2,20.5-220.5-3.1c-129.2-35.2-196.2-142.1-217.7-182c31.6,8.4,63.4,15.4,95.5,21c47.2,8.2,95.1,13.4,143.6,15.2
				c20.5,20.8,67.3,59.1,150.1,68.8C3404.1,2849.2,3462.3,2840.6,3506.9,2829.9z"/>
			<path class="st28" d="M3437.9,2896.6c-13.4,9.6-27.7,18.3-42.6,25.9c-71.4,18.6-134.2,20.5-220.5-3.1
				c-129.2-35.2-196.2-142.1-217.7-182c31.6,8.4,63.4,15.4,95.5,21c21.8,36.1,70.6,101.8,155.3,128.6
				C3296.3,2915,3358.2,2914,3437.9,2896.6z"/>
			<path class="st29" d="M2941.2,2568.3c17.6-68.8,51.4-116,89.4-149.5c34-29.9,71.5-48.8,104-62.2
				c-45.4,65.6-50.5,151.8-15.2,227.1c3.1,6.6,6.5,13.1,10.2,19.5c4.6,7.9,9.6,15.6,15,23.1c-46.4-3.8-92.3-10.7-137.6-20.3
				c-23.6-5-47-10.9-70.3-17.4c0.9-4.5,1.9-8.9,2.9-13.3C2940,2572.9,2940.6,2570.6,2941.2,2568.3z"/>
			<path class="st28" d="M2941.2,2568.3c17.6-68.8,51.4-116,89.4-149.5c-25.2,57.1-30.3,110.3-27.3,154.9c0.2,3.7,0.6,7.4,0.9,11.1
				c0.7,7.3,1.6,14.4,2.7,21.2c-23.6-5-47-10.9-70.3-17.4c0.9-4.5,1.9-8.9,2.9-13.3C2940,2572.9,2940.6,2570.6,2941.2,2568.3z"/>
		</g>
	</g>
	<g transform="matrix(0.96606,0,0,0.97155,-185.113,-315.611)">
		<g transform="matrix(1.13591,-0.0623801,0.0623801,1.13591,119.817,143.323)">
			<path class="st26" d="M578,2902.6c-9.6,97.6-2.9,156.4,21.3,217.2c-57.8,45.5-114.3,94.1-146.4,118.7
				c-39.6,30.4-91.7,38.1-82.2-31.2c7.5-54.7,13-60-25.1-100.1c-40-42,35.9-72.5-9.7-132.1c-31.3-40.9-31.5-49.6,2.6-88.1
				c43-48.5-1.9-62.2,10.2-106.6c11.3-41.5,65.1-4.4,80.4,5.8C515.5,2844.1,537.4,2866.3,578,2902.6z"/>
		</g>
		<g transform="matrix(-1.13591,-0.0623801,-0.0623801,1.13591,840.926,144.724)">
			<path class="st26" d="M-863.6,2828.3c-9.6,97.6-2.9,156.4,21.3,217.2c-57.8,45.5-114.3,94.1-146.4,118.7
				c-39.6,30.4-91.7,38.1-82.2-31.2c7.5-54.7,13-60-25.1-100.1c-40-42,35.9-72.5-9.7-132.1c-31.3-40.9-31.5-49.6,2.6-88.1
				c43-48.5-1.9-62.2,10.2-106.6c11.3-41.5,65.1-4.4,80.4,5.8C-926.1,2769.8-904.2,2792-863.6,2828.3z"/>
		</g>
		<g transform="matrix(1.12505,-0.168653,0.168653,1.12505,21.4303,48.635)">
			<path class="st29" d="M280.5,2944.1c38.6,33.4,58.1,54.1,79.9,77.8c1.1,1.2,2.2,2.4,3.3,3.6c-33.3,74.5-43.8,176.4-14.7,250.3
				c-8.4,5.5-16.7,11.1-24.8,16.5c-42,28.1-79.7,54.3-104,69.6c-25.8,16.2-55.3,23.5-70.9,11.4c95.6-33.6,117.4-83.3,81.5-103.4
				c-72.7-40.7,32.8-54.7,51.8-98.7c24.2-56.1-68.3-20-88.8-52.2c-1.7-2.7-2.5-6.9,35.3-19.3c70.8-23.3,6.3-59.4-0.3-100.5
				c-7.7-48.3,44.5,19.5,77.1,8.2C312.8,3005.1,311.9,3001.1,280.5,2944.1z"/>
		</g>
		<g transform="matrix(-1.12505,-0.168653,-0.168653,1.12505,939.312,50.0357)">
			<path class="st29" d="M-1147.7,2734.9c38.6,33.4,58.1,54.1,79.9,77.8c1.1,1.2,2.2,2.4,3.3,3.6c-33.3,74.5-43.8,176.4-14.7,250.3
				c-8.4,5.5-16.7,11.1-24.8,16.5c-42,28.1-79.7,54.3-104,69.6c-25.8,16.2-55.3,23.5-70.9,11.4c95.6-33.6,117.4-83.3,81.5-103.4
				c-72.7-40.7,32.8-54.7,51.8-98.7c24.2-56.1-68.3-20-88.8-52.2c-1.7-2.7-2.5-6.9,35.3-19.3c70.8-23.3,6.3-59.4-0.3-100.5
				c-7.7-48.3,44.5,19.5,77.1,8.2C-1115.5,2795.9-1116.4,2791.9-1147.7,2734.9z"/>
		</g>
		<g transform="matrix(1.12505,-0.168653,0.168653,1.12505,21.4303,48.635)">
			<path class="st28" d="M360.4,3021.9c1.1,1.2,2.2,2.4,3.3,3.6c-33.3,74.5-43.8,176.4-14.7,250.3c-8.4,5.5-16.7,11.1-24.8,16.5
				c-29.1-12.6-62.7-34.7-37.4-73.1c26.4-40.1,40.1-50.5,4.2-100.8c-22.5-31.4,27.2-31.5,36.9-60.7
				C330.6,3050,327.2,3016.8,360.4,3021.9z"/>
		</g>
		<g transform="matrix(-1.12505,-0.168653,-0.168653,1.12505,939.312,50.0357)">
			<path class="st28" d="M-1067.8,2812.7c1.1,1.2,2.2,2.4,3.3,3.6c-33.3,74.5-43.8,176.4-14.7,250.3c-8.4,5.5-16.7,11.1-24.8,16.5
				c-29.1-12.6-62.7-34.7-37.4-73.1c26.4-40.1,40.1-50.5,4.2-100.8c-22.5-31.4,27.2-31.5,36.9-60.7
				C-1097.7,2840.8-1101,2807.6-1067.8,2812.7z"/>
		</g>
		<g transform="matrix(1,0,0,1,174.093,61.0568)">
			<g transform="matrix(1,0,0,0.838877,9.47455,146.469)">
				<ellipse class="st26" cx="1115.3" cy="3967.1" rx="384.9" ry="324.7"/>
			</g>
			<g transform="matrix(0.837845,0,0,0.837478,34.1732,275.574)">
				<path class="st9" d="M1166.1,3947.7c-69.2-35.9-114.9-97.8-114.9-168.1c0-110.8,113.6-200.8,253.6-200.8s253.6,90,253.6,200.8
					c0,70.3-45.7,132.2-114.9,168.1c18.7,43.9,30.6,74.3,7.6,91.9c-33.4,25.7-51.3-27.9-53-33.1c-0.7-2-4-26.9-15.8-23
					c-22.9,7.7,5.9,69.4-5.8,81c-12.8,12.7-52,25.6-57.7-23.1c-1.2-10.1-0.7-27.2-14-33.6c-13.3,6.4-12.8,23.5-14,33.6
					c-5.7,48.7-45,35.8-57.7,23.1c-11.7-11.6,17.2-73.4-5.8-81c-11.7-3.9-15.1,21-15.8,23c-1.7,5.2-19.6,58.7-53,33.1
					C1135.5,4021.9,1147.4,3991.5,1166.1,3947.7z M1318.7,3876.5c-10.7,0.4-20.9,12.3-26.5,20c-7.9,10.8-31.2,35-11.3,49
					c9.2,6.5,21.2-3.2,29.9-11.7c4.6-4.4,11.1-4.4,15.7,0c8.8,8.5,20.8,18.2,30,11.7c19.8-14.1-3.6-41.5-12.2-51.4
					C1339.1,3888.3,1329.7,3876,1318.7,3876.5z M1237.3,3702.6c-42-7.6-84.1,30.4-93.9,84.7c-9.8,54.3,16.3,104.6,58.4,112.2
					c42,7.6,84.1-30.4,93.9-84.7C1305.5,3760.5,1279.4,3710.2,1237.3,3702.6z M1392.9,3713.1c-34.2,6.2-55.3,47.6-47.2,92.4
					c8.1,44.9,42.4,76.3,76.5,70.1c34.2-6.2,55.3-47.6,47.2-92.4C1461.3,3738.4,1427,3707,1392.9,3713.1z"/>
			</g>
			<path class="st9" d="M778.9,3308.5c13.3-19.5,29-37.8,46.6-54.6c4.9,35.2,26.5,39.1,46.9,82c50.3,106.2-35.3,136,2.8,206.4
				c34,62.9,67.9,107.7,0.5,192.8c-17.8-12-34.4-25.3-49.5-39.6c63.6-70,30.2-107.6-3.3-160c-38.1-59.5,47.5-84.7-2.8-174.5
				C804.3,3332.9,787.8,3324.5,778.9,3308.5z"/>
			<path class="st9" d="M1419.6,3249.6c18.5,17,34.9,35.7,48.9,55.7c-7.7,21-26.5,27.5-44.2,59.2c-50.3,89.8,35.3,115-2.8,174.5
				c-33.6,52.6-67.2,90.3-2.6,160.8c-15.4,14.1-32.2,27.1-50.2,38.8c-67.4-85.1-33.5-130,0.5-192.8c38.1-70.4-47.5-100.2,2.8-206.4
				C1393.7,3293.5,1417,3292.2,1419.6,3249.6z"/>
		</g>
		<g>
			<path class="st29" d="M926.6,3481.9c10.2-35.4,25.3-66.1,42.6-92.5c12.1-18.6,25.4-35,38.7-49.4c36.8-39.7,74.9-64.1,95-75.5
				c-11.1,19.2-39.6,72.2-54.7,136.5c-9.9,42.1-14,89.2-3.7,134.9c12.7,56.3,47.2,110.5,119.7,151c1.6,0.9,3.2,1.7,4.7,2.6
				c19.1,10.2,28.5,13.8,46.6,19.5c8.3,2.6,16.7,5,25.1,6.6c21.4,4.1,26.5,4.8,48.9,6.5c7.9,0.6,15.8,0.6,23.7,0.5
				c16.5-0.2,33-1.5,49.3-3.7c9.4-1.3,18.8-2.9,28.1-4.8c15.9-3.2,37.2-8.9,43.4-10.7c26.2-7.6,51.5-17.1,75.4-27.4
				c20-8.7,39-18,56.6-27.6c50.9-27.5,90.5-56.1,110.4-73.7c-11.3,32.6-36.8,103-96.9,163.9c-1.1,0.6-2.1,1.3-3.2,1.9
				c0.2,0.2,0.3,0.5,0.5,0.7c-14,13.9-29.9,27.3-47.8,39.6c-59.1,40.4-140.9,68.9-254.1,65c-90.6-3.1-181.5-53.1-187.1-57
				c-7.3-5-14.3-10.2-21-15.3c-0.2-0.2-0.4-0.4-0.6-0.6c0,0,0,0.1-0.1,0.1c-17.5-13.6-32.9-27.6-46.5-41.3
				c-47.3-47.9-71.8-93.1-81.3-111.1c19.8,10.9,60.6,26.3,84.4,35.8c-30.9-52.6-50.7-73.2-101.8-120.9c26.3,0.5,41.4,1.3,71.9,2.4
				c1.9,0.1,3.8,0.1,5.8,0.2c-1.5-1.2-3-2.3-4.5-3.5C975.2,3520.3,959.4,3511.3,926.6,3481.9z"/>
			<path class="st28" d="M1576.9,3741.2c-14,13.9-29.9,27.3-47.8,39.6c-59.1,40.4-140.9,68.9-254.1,65
				c-90.6-3.1-181.5-53.1-187.1-57c-7.3-5-14.3-10.2-21-15.3c-0.2-0.2-0.4-0.4-0.6-0.6c-17.9-17.8-30.9-34.7-40.9-50.6
				c-13.3-21.2-21.2-40.5-28.3-57.7c14.6,8.4,27.3,13.6,39.1,17.1c9.1,2.6,17.8,4.2,26.4,5.4c-41.2-55.6-63.9-97.3-75.8-122
				c-2.5-5.3-4.6-9.7-6.2-13.4c2.2,1.2,4.5,2.3,7.1,3.6c6.3,3,14.9,6.7,30.6,12.6c-6.6-41.4-6.6-50.2-5.2-72.3
				c8.9,28.6,17.6,56.2,26.9,82.5c1.4,7.9,4.2,16.3,9.1,25.3c0.3,0.6,0.7,1.2,1,1.8c10.1,25.9,21.2,50.2,34.3,72.2
				c29.5,49.9,69.1,88.7,129.7,110.2c75.2,26.7,187.6,34.6,307.5-18.6c18.1-8,36.3-17.5,54.7-28.4
				C1576.5,3740.7,1576.7,3741,1576.9,3741.2z"/>
			<path class="st30" d="M1576.9,3741.2c-14,13.9-29.9,27.3-47.8,39.6c-2.7-4.1-5.1-8-7.3-11.9c18.1-8,36.3-17.5,54.7-28.4
				C1576.5,3740.7,1576.7,3741,1576.9,3741.2z"/>
			<path class="st30" d="M1013.2,3495.5c8.9,28.6,17.6,56.2,26.9,82.5c1.4,7.9,4.2,16.3,9.1,25.3c0.3,0.6,0.7,1.2,1,1.8
				c10.1,25.9,21.2,50.2,34.3,72.2c7.8,28.1,5.5,57.7-18.2,95.5c-17.9-17.8-30.9-34.7-40.9-50.6c8-14.8,11.1-28.1,10.8-40.6
				c9.1,2.6,17.8,4.2,26.4,5.4c-41.2-55.6-63.9-97.3-75.8-122c0-3.3,0.4-6.6,0.9-9.8c6.3,3,14.9,6.7,30.6,12.6
				C1011.8,3526.4,1011.8,3517.6,1013.2,3495.5z"/>
			<g>
				<path class="st31" d="M1215.6,3708.9c-7.3,12.1-19.5,24-36.7,10.8c-9.6-7.4-12-17.5-9.9-30.3
					C1184.2,3697.5,1199.8,3704,1215.6,3708.9z"/>
				<path class="st31" d="M1289.6,3722.1c-5.1,39.8-37.6,29.1-48.3,18.5c-3.8-3.8-2.5-13.8-0.6-25.1
					C1256.9,3719.1,1273.2,3721.2,1289.6,3722.1z"/>
				<path class="st31" d="M1434.1,3703.4c-1.1,6.4-4.3,11.8-10.1,16.3c-14.7,11.3-25.8,4.3-33.3-5.6
					C1405.4,3711.2,1419.8,3707.6,1434.1,3703.4z"/>
				<path class="st31" d="M1362.7,3718.9c1.6,9.9,2.3,18.4-1.1,21.8c-10.6,10.5-42.9,21.2-48.2-18
					C1329.8,3722.4,1346.3,3721.1,1362.7,3718.9z"/>
				<path class="st31" d="M1509.5,3676c20-8.7,39-18,56.6-27.6c-13.3,27.5-16,55.2,10.3,92.1c0.2,0.2,0.4,0.5,0.5,0.7
					c-14,13.9-29.9,27.3-47.8,39.6c-2.7-4.1-5.1-8-7.3-11.9C1501,3732.5,1500.6,3703.7,1509.5,3676z"/>
				<path class="st31" d="M992.9,3537.9c0.4-1.1,0.8-2.2,1.3-3.2c6-14.9,13.9-30.3,15.8-49.2c1.8-17.4-1.5-37.8-15.9-63.4
					c-8.5-15.2-17.3-24.6-24.9-32.6c12.1-18.6,25.4-35,38.7-49.4c9.3,15.9,24.2,26.9,38.5,57c0.7,1.4,1.3,2.7,1.9,4.1
					c-9.9,42.1-14,89.2-3.7,134.9c-4.3,13.6-7.1,27.1-4.5,42.1c1.4,7.9,4.2,16.3,9.1,25.3c0.3,0.6,0.7,1.2,1,1.8
					c14,25.7,27.7,48.4,34.3,72.2c7.8,28.1,5.5,57.7-18.2,95.5l-0.1,0.1c-17.5-13.6-32.9-27.6-46.5-41.3c2.1-3.2,4-6.4,5.6-9.4
					c8-14.8,11.1-28.1,10.8-40.6c-0.2-7.3-1.5-14.3-3.6-21.3c-6.6-21.1-21.1-41-35.7-63.8c-7.4-11.5-10.1-21.8-10.1-31.5
					c0-3.3,0.4-6.6,0.9-9.8C988.8,3549.4,990.7,3543.6,992.9,3537.9z"/>
			</g>
		</g>
		<g>
			<g transform="matrix(1.12505,-0.168653,0.168653,1.12505,21.4182,49.5704)">
				<path class="st27" d="M255.6,2949.2c-5.6-16.8-53-59.9-74.9-35.8c-10,11.1,20.8,32.6,44.9,42.9
					C238.8,2961.9,255.5,2959.3,255.6,2949.2z"/>
			</g>
			<g transform="matrix(-1.12505,-0.168653,-0.168653,1.12505,939.324,50.9711)">
				<path class="st27" d="M-1172.7,2740c-5.6-16.8-53-59.9-74.9-35.8c-10,11.1,20.8,32.6,44.9,42.9
					C-1189.5,2752.7-1172.8,2750.1-1172.7,2740z"/>
			</g>
			<g transform="matrix(1.12505,-0.168653,0.168653,1.12505,21.4303,48.635)">
				<path class="st27" d="M182.8,2982.7c-18,11-17.9,23.1-38.1,37.1c-31,21.4-8.2,30-3.2,29.3c16.4-2.6,24.6-16.3,30.3-23.5
					c27-34.3,43.4-39.6,36.4-47.9C202.3,2970.7,184.5,2981.6,182.8,2982.7z"/>
			</g>
			<g transform="matrix(-1.12505,-0.168653,-0.168653,1.12505,939.312,50.0357)">
				<path class="st27" d="M-1245.5,2773.5c-18,11-17.9,23.1-38.1,37.1c-31,21.4-8.2,30-3.2,29.3c16.4-2.6,24.6-16.3,30.3-23.5
					c27-34.3,43.4-39.6,36.4-47.9C-1225.9,2761.5-1243.7,2772.4-1245.5,2773.5z"/>
			</g>
			<g transform="matrix(1.12505,-0.168653,0.168653,1.12505,21.4303,48.635)">
				<path class="st27" d="M262.7,3153.9c-14.1-4.3-15.9-0.1-37.7-5.3c-49.5-11.9-111.6,31.2-81.4,49.4c18,10.8,56.9-17.3,66-21.3
					C237.8,3164.4,282.3,3168.1,262.7,3153.9z"/>
			</g>
			<g transform="matrix(-1.12505,-0.168653,-0.168653,1.12505,939.312,50.0357)">
				<path class="st27" d="M-1165.6,2944.7c-14.1-4.3-15.9-0.1-37.7-5.3c-49.5-11.9-111.6,31.2-81.4,49.4c18,10.8,56.9-17.3,66-21.3
					C-1190.4,2955.2-1146,2958.9-1165.6,2944.7z"/>
			</g>
			<g transform="matrix(1.12505,-0.168653,0.168653,1.12505,21.4303,48.635)">
				<path class="st27" d="M163.7,3223.3c-11.2-6.2,6.6,28.8,8.9,53.9c1.7,18.8-7.7,33.3-5.8,37c3,7.9,12,4.3,24.5-2.6
					c41.4-22.8,8.7-44.5,6-47.1c-13.6-13.2-9-7.6-19-23.6C172.5,3231.8,170.9,3227.3,163.7,3223.3z"/>
			</g>
			<g transform="matrix(-1.12505,-0.168653,-0.168653,1.12505,939.312,50.0357)">
				<path class="st27" d="M-1264.6,3014.1c-11.2-6.2,6.6,28.8,8.9,53.9c1.7,18.8-7.7,33.3-5.8,37c3,7.9,12,4.3,24.5-2.6
					c41.4-22.8,8.7-44.5,6-47.1c-13.6-13.2-9-7.6-19-23.6C-1255.8,3022.6-1257.3,3018.1-1264.6,3014.1z"/>
			</g>
			<path class="st27" d="M1520.8,3273.6c-6.4-3.1-159-88-307.9-49.7c-76.1,19.6-43.2,62.6-3,72.7c77.7,19.6,172.8-37,267.1,37.2
				c6.1,4.8,67.1,62.9,91.8,15.2C1585.8,3316.3,1537.1,3281.5,1520.8,3273.6z"/>
		</g>
		<g transform="matrix(1.13591,-0.0623801,0.0623801,1.13591,119.817,143.323)">
			<path class="st26" d="M578,2902.6c-9.6,97.6-2.9,156.4,21.3,217.2c-57.8,45.5-114.3,94.1-146.4,118.7
				c-39.6,30.4-91.7,38.1-82.2-31.2c7.5-54.7,13-60-25.1-100.1c-40-42,35.9-72.5-9.7-132.1c-31.3-40.9-31.5-49.6,2.6-88.1
				c43-48.5-1.9-62.2,10.2-106.6c11.3-41.5,65.1-4.4,80.4,5.8C515.5,2844.1,537.4,2866.3,578,2902.6z"/>
		</g>
		<g transform="matrix(-1.13591,-0.0623801,-0.0623801,1.13591,840.926,144.724)">
			<path class="st26" d="M-863.6,2828.3c-9.6,97.6-2.9,156.4,21.3,217.2c-57.8,45.5-114.3,94.1-146.4,118.7
				c-39.6,30.4-91.7,38.1-82.2-31.2c7.5-54.7,13-60-25.1-100.1c-40-42,35.9-72.5-9.7-132.1c-31.3-40.9-31.5-49.6,2.6-88.1
				c43-48.5-1.9-62.2,10.2-106.6c11.3-41.5,65.1-4.4,80.4,5.8C-926.1,2769.8-904.2,2792-863.6,2828.3z"/>
		</g>
		<g transform="matrix(1.12505,-0.168653,0.168653,1.12505,21.4303,48.635)">
			<path class="st29" d="M280.5,2944.1c38.6,33.4,58.1,54.1,79.9,77.8c1.1,1.2,2.2,2.4,3.3,3.6c-33.3,74.5-43.8,176.4-14.7,250.3
				c-8.4,5.5-16.7,11.1-24.8,16.5c-42,28.1-79.7,54.3-104,69.6c-25.8,16.2-55.3,23.5-70.9,11.4c95.6-33.6,117.4-83.3,81.5-103.4
				c-72.7-40.7,32.8-54.7,51.8-98.7c24.2-56.1-68.3-20-88.8-52.2c-1.7-2.7-2.5-6.9,35.3-19.3c70.8-23.3,6.3-59.4-0.3-100.5
				c-7.7-48.3,44.5,19.5,77.1,8.2C312.8,3005.1,311.9,3001.1,280.5,2944.1z"/>
		</g>
		<g transform="matrix(-1.12505,-0.168653,-0.168653,1.12505,939.312,50.0357)">
			<path class="st29" d="M-1147.7,2734.9c38.6,33.4,58.1,54.1,79.9,77.8c1.1,1.2,2.2,2.4,3.3,3.6c-33.3,74.5-43.8,176.4-14.7,250.3
				c-8.4,5.5-16.7,11.1-24.8,16.5c-42,28.1-79.7,54.3-104,69.6c-25.8,16.2-55.3,23.5-70.9,11.4c95.6-33.6,117.4-83.3,81.5-103.4
				c-72.7-40.7,32.8-54.7,51.8-98.7c24.2-56.1-68.3-20-88.8-52.2c-1.7-2.7-2.5-6.9,35.3-19.3c70.8-23.3,6.3-59.4-0.3-100.5
				c-7.7-48.3,44.5,19.5,77.1,8.2C-1115.5,2795.9-1116.4,2791.9-1147.7,2734.9z"/>
		</g>
		<g transform="matrix(1.12505,-0.168653,0.168653,1.12505,21.4303,48.635)">
			<path class="st28" d="M360.4,3021.9c1.1,1.2,2.2,2.4,3.3,3.6c-33.3,74.5-43.8,176.4-14.7,250.3c-8.4,5.5-16.7,11.1-24.8,16.5
				c-29.1-12.6-62.7-34.7-37.4-73.1c26.4-40.1,40.1-50.5,4.2-100.8c-22.5-31.4,27.2-31.5,36.9-60.7
				C330.6,3050,327.2,3016.8,360.4,3021.9z"/>
		</g>
		<g transform="matrix(-1.12505,-0.168653,-0.168653,1.12505,939.312,50.0357)">
			<path class="st28" d="M-1067.8,2812.7c1.1,1.2,2.2,2.4,3.3,3.6c-33.3,74.5-43.8,176.4-14.7,250.3c-8.4,5.5-16.7,11.1-24.8,16.5
				c-29.1-12.6-62.7-34.7-37.4-73.1c26.4-40.1,40.1-50.5,4.2-100.8c-22.5-31.4,27.2-31.5,36.9-60.7
				C-1097.7,2840.8-1101,2807.6-1067.8,2812.7z"/>
		</g>
		<g>
			<g transform="matrix(1.12505,-0.168653,0.168653,1.12505,21.4182,49.5704)">
				<path class="st27" d="M255.6,2949.2c-5.6-16.8-53-59.9-74.9-35.8c-10,11.1,20.8,32.6,44.9,42.9
					C238.8,2961.9,255.5,2959.3,255.6,2949.2z"/>
			</g>
			<g transform="matrix(-1.12505,-0.168653,-0.168653,1.12505,939.324,50.9711)">
				<path class="st27" d="M-1172.7,2740c-5.6-16.8-53-59.9-74.9-35.8c-10,11.1,20.8,32.6,44.9,42.9
					C-1189.5,2752.7-1172.8,2750.1-1172.7,2740z"/>
			</g>
			<g transform="matrix(1.12505,-0.168653,0.168653,1.12505,21.4303,48.635)">
				<path class="st27" d="M182.8,2982.7c-18,11-17.9,23.1-38.1,37.1c-31,21.4-8.2,30-3.2,29.3c16.4-2.6,24.6-16.3,30.3-23.5
					c27-34.3,43.4-39.6,36.4-47.9C202.3,2970.7,184.5,2981.6,182.8,2982.7z"/>
			</g>
			<g transform="matrix(-1.12505,-0.168653,-0.168653,1.12505,939.312,50.0357)">
				<path class="st27" d="M-1245.5,2773.5c-18,11-17.9,23.1-38.1,37.1c-31,21.4-8.2,30-3.2,29.3c16.4-2.6,24.6-16.3,30.3-23.5
					c27-34.3,43.4-39.6,36.4-47.9C-1225.9,2761.5-1243.7,2772.4-1245.5,2773.5z"/>
			</g>
			<g transform="matrix(1.12505,-0.168653,0.168653,1.12505,21.4303,48.635)">
				<path class="st27" d="M262.7,3153.9c-14.1-4.3-15.9-0.1-37.7-5.3c-49.5-11.9-111.6,31.2-81.4,49.4c18,10.8,56.9-17.3,66-21.3
					C237.8,3164.4,282.3,3168.1,262.7,3153.9z"/>
			</g>
			<g transform="matrix(-1.12505,-0.168653,-0.168653,1.12505,939.312,50.0357)">
				<path class="st27" d="M-1165.6,2944.7c-14.1-4.3-15.9-0.1-37.7-5.3c-49.5-11.9-111.6,31.2-81.4,49.4c18,10.8,56.9-17.3,66-21.3
					C-1190.4,2955.2-1146,2958.9-1165.6,2944.7z"/>
			</g>
			<g transform="matrix(1.12505,-0.168653,0.168653,1.12505,21.4303,48.635)">
				<path class="st27" d="M163.7,3223.3c-11.2-6.2,6.6,28.8,8.9,53.9c1.7,18.8-7.7,33.3-5.8,37c3,7.9,12,4.3,24.5-2.6
					c41.4-22.8,8.7-44.5,6-47.1c-13.6-13.2-9-7.6-19-23.6C172.5,3231.8,170.9,3227.3,163.7,3223.3z"/>
			</g>
			<g transform="matrix(-1.12505,-0.168653,-0.168653,1.12505,939.312,50.0357)">
				<path class="st27" d="M-1264.6,3014.1c-11.2-6.2,6.6,28.8,8.9,53.9c1.7,18.8-7.7,33.3-5.8,37c3,7.9,12,4.3,24.5-2.6
					c41.4-22.8,8.7-44.5,6-47.1c-13.6-13.2-9-7.6-19-23.6C-1255.8,3022.6-1257.3,3018.1-1264.6,3014.1z"/>
			</g>
			<path class="st27" d="M1520.8,3273.6c-6.4-3.1-159-88-307.9-49.7c-76.1,19.6-43.2,62.6-3,72.7c77.7,19.6,172.8-37,267.1,37.2
				c6.1,4.8,67.1,62.9,91.8,15.2C1585.8,3316.3,1537.1,3281.5,1520.8,3273.6z"/>
		</g>
	</g>
	<g transform="matrix(0.96606,0,0,0.97155,-185.113,-315.611)">
		<g transform="matrix(1.13591,-0.0623801,0.0623801,1.13591,119.817,143.323)">
			<path class="st26" d="M653.8,904.5c-10.1,103.5-3,165.8,22.6,230.4c-61.3,48.3-121.3,99.8-155.3,125.9
				c-42,32.3-97.2,40.4-87.2-33.1c8-58.1,13.8-63.7-26.6-106.1c-42.4-44.5,38-76.9-10.3-140.1c-33.2-43.4-33.4-52.6,2.8-93.5
				c45.6-51.5-2-66,10.8-113.1c12-44,69.1-4.7,85.2,6.1C587.5,842.5,610.7,866,653.8,904.5z"/>
		</g>
		<g transform="matrix(-1.13591,-0.0623801,-0.0623801,1.13591,840.926,144.724)">
			<path class="st26" d="M-756.9,832.2c-10.1,103.5-3,165.8,22.6,230.4c-61.3,48.3-121.3,99.8-155.3,125.9
				c-42,32.3-97.2,40.4-87.2-33.1c8-58.1,13.8-63.7-26.6-106.1c-42.4-44.5,38-76.9-10.3-140.1c-33.2-43.4-33.4-52.6,2.8-93.5
				c45.6-51.5-2-66,10.8-113.1c12-44,69.1-4.7,85.2,6.1C-823.1,770.3-799.9,793.8-756.9,832.2z"/>
		</g>
		<g transform="matrix(1.12505,-0.168653,0.168653,1.12505,21.4303,48.635)">
			<path class="st29" d="M537.6,956.1c41,35.5,61.7,57.4,84.8,82.5c1.2,1.3,2.4,2.6,3.5,3.9c-35.3,79.1-46.5,187.1-15.6,265.5
				c-8.9,5.9-17.7,11.7-26.3,17.5c-44.5,29.9-84.5,57.6-110.3,73.8c-27.3,17.2-58.7,25-75.2,12.1c101.4-35.6,124.5-88.4,86.4-109.7
				c-77.1-43.2,34.8-58,55-104.6c25.7-59.5-72.5-21.2-94.2-55.3c-1.8-2.9-2.7-7.3,37.5-20.5c75.1-24.7,6.6-63-0.3-106.6
				c-8.1-51.2,47.2,20.7,81.7,8.7C571.8,1020.9,570.9,1016.6,537.6,956.1z"/>
		</g>
		<g transform="matrix(-1.12505,-0.168653,-0.168653,1.12505,939.312,50.0357)">
			<path class="st29" d="M-860,751.9c41,35.5,61.7,57.4,84.8,82.5c1.2,1.3,2.4,2.6,3.5,3.9c-35.3,79.1-46.5,187.1-15.6,265.5
				c-8.9,5.9-17.7,11.7-26.3,17.5c-44.5,29.9-84.5,57.6-110.3,73.8c-27.3,17.2-58.7,25-75.2,12.1c101.4-35.6,124.5-88.4,86.4-109.7
				c-77.1-43.2,34.8-58,55-104.6c25.7-59.5-72.5-21.2-94.2-55.3c-1.8-2.9-2.7-7.3,37.5-20.5c75.1-24.7,6.6-63-0.3-106.6
				c-8.1-51.2,47.2,20.7,81.7,8.7C-825.8,816.6-826.7,812.4-860,751.9z"/>
		</g>
		<g transform="matrix(1.12505,-0.168653,0.168653,1.12505,21.4303,48.635)">
			<path class="st28" d="M622.4,1038.7c1.2,1.3,2.4,2.6,3.5,3.9c-35.3,79.1-46.5,187.1-15.6,265.5c-8.9,5.9-17.7,11.7-26.3,17.5
				c-30.8-13.4-66.5-36.8-39.7-77.5c28-42.6,42.6-53.6,4.4-106.9c-23.9-33.3,28.8-33.4,39.2-64.3
				C590.7,1068.5,587.1,1033.3,622.4,1038.7z"/>
		</g>
		<g transform="matrix(-1.12505,-0.168653,-0.168653,1.12505,939.312,50.0357)">
			<path class="st28" d="M-775.3,834.4c1.2,1.3,2.4,2.6,3.5,3.9c-35.3,79.1-46.5,187.1-15.6,265.5c-8.9,5.9-17.7,11.7-26.3,17.5
				c-30.8-13.4-66.5-36.8-39.7-77.5c28-42.6,42.6-53.6,4.4-106.9c-23.9-33.3,28.8-33.4,39.2-64.3C-807,864.2-810.5,829-775.3,834.4z
				"/>
		</g>
		<g transform="matrix(1,0,0,1,174.093,61.0568)">
			<g transform="matrix(1,0,0,0.838877,9.47455,146.469)">
				<ellipse class="st5" cx="1097.5" cy="1265.3" rx="408.3" ry="344.4"/>
			</g>
			<g transform="matrix(0.837845,0,0,0.837478,34.1732,275.574)">
				<path class="st9" d="M1136.6,1249.2c-73.4-38.1-121.9-103.7-121.9-178.3c0-117.6,120.5-213,269-213s269,95.4,269,213
					c0,74.6-48.5,140.3-121.9,178.3c19.8,46.5,32.5,78.8,8.1,97.5c-35.4,27.2-54.4-29.6-56.2-35.1c-0.7-2.1-4.3-28.5-16.7-24.3
					c-24.3,8.1,6.3,73.6-6.1,86c-13.5,13.5-55.1,27.1-61.2-24.5c-1.3-10.8-0.8-28.9-14.8-35.6c-14.1,6.8-13.6,24.9-14.8,35.6
					c-6.1,51.6-47.7,38-61.2,24.5c-12.4-12.3,18.2-77.8-6.1-86c-12.4-4.2-16,22.2-16.7,24.3c-1.8,5.5-20.8,62.3-56.2,35.1
					C1104.1,1328,1116.8,1295.7,1136.6,1249.2z M1298.5,1173.7c-11.3,0.5-22.1,13-28.1,21.2c-8.3,11.5-33.1,37.1-12,52
					c9.8,6.9,22.4-3.4,31.7-12.4c4.9-4.7,11.7-4.7,16.6,0c9.3,9,22.1,19.3,31.8,12.4c21.1-14.9-3.8-44-13-54.5
					C1320.1,1186.2,1310.2,1173.2,1298.5,1173.7z M1212.2,989.3c-44.6-8-89.2,32.2-99.6,89.9c-10.4,57.6,17.3,111,61.9,119
					c44.6,8,89.2-32.2,99.6-89.9C1284.5,1050.7,1256.7,997.3,1212.2,989.3z M1377.1,1000.4c-36.2,6.5-58.7,50.5-50.1,98.1
					c8.6,47.6,45,80.9,81.2,74.4c36.2-6.5,58.7-50.5,50.1-98.1C1449.8,1027.2,1413.4,993.9,1377.1,1000.4z"/>
			</g>
			<path class="st9" d="M740.1,1032c14.2-20.7,30.7-40.1,49.4-57.9c5.2,37.3,28.1,41.5,49.7,87c53.3,112.6-37.4,144.3,2.9,218.9
				c36.1,66.7,72,114.3,0.5,204.5c-18.9-12.7-36.5-26.8-52.5-42c67.5-74.2,32-114.1-3.5-169.7c-40.4-63.1,50.4-89.9-2.9-185.1
				C767,1057.9,749.5,1049,740.1,1032z"/>
			<path class="st9" d="M1419.7,969.5c19.6,18.1,37,37.9,51.9,59.1c-8.2,22.2-28.1,29.2-46.9,62.8c-53.3,95.2,37.4,122-2.9,185.1
				c-35.7,55.8-71.2,95.8-2.8,170.6c-16.3,15-34.1,28.7-53.3,41.2c-71.5-90.2-35.5-137.8,0.5-204.5c40.4-74.6-50.4-106.3,2.9-218.9
				C1392.2,1016.1,1416.9,1014.7,1419.7,969.5z"/>
		</g>
		<g>
			<path class="st6" d="M886.2,1212.2c10.8-37.5,26.8-70.1,45.1-98.2c12.9-19.7,26.9-37.1,41.1-52.4c39.1-42.1,79.5-68,100.8-80
				c-11.8,20.4-42,76.5-58,144.8c-10.5,44.7-14.8,94.6-3.9,143c13.4,59.7,50,117.2,126.9,160.1c1.7,0.9,3.4,1.8,5,2.7
				c20.3,10.8,30.3,14.7,49.5,20.7c8.8,2.8,17.7,5.3,26.7,7c22.7,4.4,28.1,5.1,51.8,6.9c8.4,0.7,16.7,0.6,25.1,0.5
				c17.5-0.2,35-1.6,52.3-4c10-1.4,19.9-3.1,29.8-5c16.9-3.4,39.4-9.4,46-11.3c27.8-8.1,54.6-18.1,80-29.1
				c21.2-9.2,41.4-19.1,60.1-29.2c54-29.1,96-59.6,117.1-78.2c-12,34.6-39,109.2-102.8,173.9c-1.1,0.7-2.2,1.4-3.3,2
				c0.2,0.3,0.4,0.5,0.6,0.8c-14.9,14.8-31.7,29-50.8,42c-62.7,42.9-149.5,73.1-269.6,68.9c-96.1-3.3-192.5-56.3-198.4-60.4
				c-7.7-5.3-15.1-10.8-22.2-16.3c-0.2-0.2-0.5-0.4-0.7-0.7c0,0,0,0.1-0.1,0.1c-18.6-14.4-34.9-29.2-49.3-43.8
				c-50.1-50.8-76.1-98.7-86.2-117.8c21,11.5,64.2,27.9,89.5,37.9c-32.8-55.8-53.8-77.7-107.9-128.2c27.9,0.5,44,1.4,76.2,2.6
				c2,0.1,4,0.1,6.2,0.2c-1.6-1.3-3.2-2.5-4.8-3.7C937.7,1253,921,1243.4,886.2,1212.2z"/>
			<path class="st7" d="M1576,1487.3c-14.9,14.8-31.7,29-50.8,42c-62.7,42.9-149.5,73.1-269.6,68.9c-96.1-3.3-192.5-56.3-198.4-60.4
				c-7.7-5.3-15.1-10.8-22.2-16.3c-0.2-0.2-0.5-0.4-0.7-0.7c-19-18.9-32.8-36.8-43.4-53.7c-14.1-22.4-22.5-43-30-61.2
				c15.5,9,28.9,14.5,41.5,18.1c9.7,2.8,18.8,4.5,28,5.7c-43.7-59-67.8-103.2-80.4-129.4c-2.7-5.6-4.8-10.3-6.6-14.3
				c2.3,1.2,4.7,2.5,7.6,3.8c6.7,3.2,15.8,7.1,32.5,13.4c-7-43.9-7-53.2-5.5-76.7c9.5,30.3,18.7,59.6,28.6,87.5
				c1.4,8.4,4.5,17.3,9.6,26.8c0.4,0.6,0.7,1.3,1,1.9c10.7,27.5,22.5,53.2,36.4,76.6c31.3,52.9,73.3,94,137.6,116.9
				c79.8,28.3,199,36.7,326.2-19.8c19.2-8.5,38.5-18.5,58-30.1C1575.6,1486.8,1575.8,1487.1,1576,1487.3z"/>
			<path class="st30" d="M1576,1487.3c-14.9,14.8-31.7,29-50.8,42c-2.9-4.3-5.4-8.5-7.8-12.6c19.2-8.5,38.5-18.5,58-30.1
				C1575.6,1486.8,1575.8,1487.1,1576,1487.3z"/>
			<path class="st30" d="M978,1226.7c9.5,30.3,18.7,59.6,28.6,87.5c1.4,8.4,4.5,17.3,9.6,26.8c0.4,0.6,0.7,1.3,1,1.9
				c10.7,27.5,22.5,53.2,36.4,76.6c8.2,29.8,5.9,61.2-19.3,101.3c-19-18.9-32.8-36.8-43.4-53.7c8.4-15.7,11.8-29.8,11.5-43.1
				c9.7,2.8,18.8,4.5,28,5.7c-43.7-59-67.8-103.2-80.4-129.4c0-3.5,0.4-7,1-10.4c6.7,3.2,15.8,7.1,32.5,13.4
				C976.5,1259.4,976.5,1250.1,978,1226.7z"/>
			<g>
				<path class="st31" d="M1192.8,1453.1c-7.7,12.8-20.7,25.4-39,11.4c-10.2-7.9-12.7-18.5-10.5-32.1
					C1159.4,1441,1175.9,1447.8,1192.8,1453.1z"/>
				<path class="st31" d="M1271.2,1467c-5.4,42.3-39.9,30.9-51.2,19.7c-4-4-2.6-14.6-0.6-26.6
					C1236.5,1463.8,1253.9,1466.1,1271.2,1467z"/>
				<path class="st31" d="M1424.5,1447.2c-1.2,6.8-4.6,12.5-10.7,17.3c-15.6,12-27.4,4.5-35.3-5.9
					C1394,1455.4,1409.4,1451.6,1424.5,1447.2z"/>
				<path class="st31" d="M1348.7,1463.6c1.7,10.5,2.4,19.5-1.2,23.1c-11.2,11.2-45.5,22.5-51.1-19.1
					C1313.9,1467.4,1331.3,1466,1348.7,1463.6z"/>
				<path class="st31" d="M1504.4,1418.1c21.2-9.2,41.4-19.1,60.1-29.2c-14.1,29.2-16.9,58.5,10.9,97.7c0.2,0.3,0.4,0.5,0.6,0.8
					c-14.9,14.8-31.7,29-50.8,42c-2.9-4.3-5.4-8.5-7.8-12.6C1495.4,1478.1,1495.1,1447.5,1504.4,1418.1z"/>
				<path class="st31" d="M956.5,1271.6c0.4-1.1,0.9-2.3,1.4-3.4c6.4-15.8,14.7-32.1,16.8-52.2c1.9-18.5-1.6-40.1-16.8-67.3
					c-9-16.1-18.3-26.1-26.4-34.6c12.9-19.7,26.9-37.1,41.1-52.4c9.9,16.9,25.7,28.5,40.8,60.4c0.7,1.5,1.4,2.9,2,4.3
					c-10.5,44.7-14.8,94.6-3.9,143c-4.6,14.5-7.5,28.8-4.8,44.7c1.4,8.4,4.5,17.3,9.6,26.8c0.4,0.6,0.7,1.3,1,1.9
					c14.8,27.2,29.4,51.3,36.4,76.6c8.2,29.8,5.9,61.2-19.3,101.3l-0.1,0.1c-18.6-14.4-34.9-29.2-49.3-43.8c2.2-3.4,4.2-6.7,6-10
					c8.4-15.7,11.8-29.8,11.5-43.1c-0.2-7.7-1.5-15.2-3.8-22.6c-7-22.3-22.4-43.5-37.8-67.7c-7.8-12.2-10.7-23.1-10.7-33.4
					c0-3.5,0.4-7,1-10.4C952.2,1283.8,954.1,1277.7,956.5,1271.6z"/>
			</g>
		</g>
		<g>
			<g transform="matrix(1.12505,-0.168653,0.168653,1.12505,21.4182,49.5704)">
				<path class="st27" d="M511.1,961.6c-5.9-17.9-56.2-63.6-79.4-37.9c-10.6,11.7,22,34.5,47.7,45.5
					C493.3,975.1,511,972.4,511.1,961.6z"/>
			</g>
			<g transform="matrix(-1.12505,-0.168653,-0.168653,1.12505,939.324,50.9711)">
				<path class="st27" d="M-886.5,757.4c-5.9-17.9-56.2-63.6-79.4-37.9c-10.6,11.7,22,34.5,47.7,45.5
					C-904.3,770.9-886.6,768.1-886.5,757.4z"/>
			</g>
			<g transform="matrix(1.12505,-0.168653,0.168653,1.12505,21.4303,48.635)">
				<path class="st27" d="M433.9,997.1c-19.1,11.7-19,24.5-40.4,39.3c-32.9,22.7-8.7,31.9-3.4,31c17.4-2.7,26.1-17.3,32.1-24.9
					c28.6-36.4,46-42,38.6-50.8C454.6,984.4,435.8,996,433.9,997.1z"/>
			</g>
			<g transform="matrix(-1.12505,-0.168653,-0.168653,1.12505,939.312,50.0357)">
				<path class="st27" d="M-963.7,792.9c-19.1,11.7-19,24.5-40.4,39.3c-32.9,22.7-8.7,31.9-3.4,31c17.4-2.7,26.1-17.3,32.1-24.9
					c28.6-36.4,46-42,38.6-50.8C-943,780.2-961.9,791.7-963.7,792.9z"/>
			</g>
			<g transform="matrix(1.12505,-0.168653,0.168653,1.12505,21.4303,48.635)">
				<path class="st27" d="M518.6,1178.7c-15-4.6-16.9-0.1-40-5.6c-52.5-12.6-118.4,33.1-86.4,52.4c19.1,11.5,60.4-18.4,70-22.6
					C492.3,1189.8,539.5,1193.8,518.6,1178.7z"/>
			</g>
			<g transform="matrix(-1.12505,-0.168653,-0.168653,1.12505,939.312,50.0357)">
				<path class="st27" d="M-879,974.4c-15-4.6-16.9-0.1-40-5.6c-52.5-12.6-118.4,33.1-86.4,52.4c19.1,11.5,60.4-18.4,70-22.6
					C-905.3,985.6-858.2,989.5-879,974.4z"/>
			</g>
			<g transform="matrix(1.12505,-0.168653,0.168653,1.12505,21.4303,48.635)">
				<path class="st27" d="M413.7,1252.3c-11.8-6.6,7,30.6,9.4,57.2c1.8,20-8.2,35.3-6.1,39.2c3.2,8.3,12.7,4.6,26-2.7
					c44-24.2,9.2-47.2,6.4-50c-14.4-14-9.5-8-20.2-25C423,1261.4,421.3,1256.6,413.7,1252.3z"/>
			</g>
			<g transform="matrix(-1.12505,-0.168653,-0.168653,1.12505,939.312,50.0357)">
				<path class="st27" d="M-984,1048.1c-11.8-6.6,7,30.6,9.4,57.2c1.8,20-8.2,35.3-6.1,39.2c3.2,8.3,12.7,4.6,26-2.7
					c44-24.2,9.2-47.2,6.4-50c-14.4-14-9.5-8-20.2-25C-974.6,1057.1-976.3,1052.4-984,1048.1z"/>
			</g>
			<path class="st27" d="M1516.4,991.3c-6.8-3.3-168.7-93.4-326.6-52.7c-80.7,20.8-45.8,66.4-3.2,77.1
				c82.4,20.8,183.3-39.3,283.4,39.5c6.5,5.1,71.2,66.7,97.4,16.2C1585.4,1036.6,1533.8,999.7,1516.4,991.3z"/>
		</g>
		<g transform="matrix(1.13591,-0.0623801,0.0623801,1.13591,119.817,143.323)">
			<path class="st5" d="M653.8,904.5c-10.1,103.5-3,165.8,22.6,230.4c-61.3,48.3-121.3,99.8-155.3,125.9
				c-42,32.3-97.2,40.4-87.2-33.1c8-58.1,13.8-63.7-26.6-106.1c-42.4-44.5,38-76.9-10.3-140.1c-33.2-43.4-33.4-52.6,2.8-93.5
				c45.6-51.5-2-66,10.8-113.1c12-44,69.1-4.7,85.2,6.1C587.5,842.5,610.7,866,653.8,904.5z"/>
		</g>
		<g transform="matrix(-1.13591,-0.0623801,-0.0623801,1.13591,840.926,144.724)">
			<path class="st5" d="M-756.9,832.2c-10.1,103.5-3,165.8,22.6,230.4c-61.3,48.3-121.3,99.8-155.3,125.9
				c-42,32.3-97.2,40.4-87.2-33.1c8-58.1,13.8-63.7-26.6-106.1c-42.4-44.5,38-76.9-10.3-140.1c-33.2-43.4-33.4-52.6,2.8-93.5
				c45.6-51.5-2-66,10.8-113.1c12-44,69.1-4.7,85.2,6.1C-823.1,770.3-799.9,793.8-756.9,832.2z"/>
		</g>
		<g transform="matrix(1.12505,-0.168653,0.168653,1.12505,21.4303,48.635)">
			<path class="st6" d="M537.6,956.1c41,35.5,61.7,57.4,84.8,82.5c1.2,1.3,2.4,2.6,3.5,3.9c-35.3,79.1-46.5,187.1-15.6,265.5
				c-8.9,5.9-17.7,11.7-26.3,17.5c-44.5,29.9-84.5,57.6-110.3,73.8c-27.3,17.2-58.7,25-75.2,12.1c101.4-35.6,124.5-88.4,86.4-109.7
				c-77.1-43.2,34.8-58,55-104.6c25.7-59.5-72.5-21.2-94.2-55.3c-1.8-2.9-2.7-7.3,37.5-20.5c75.1-24.7,6.6-63-0.3-106.6
				c-8.1-51.2,47.2,20.7,81.7,8.7C571.8,1020.9,570.9,1016.6,537.6,956.1z"/>
		</g>
		<g transform="matrix(-1.12505,-0.168653,-0.168653,1.12505,939.312,50.0357)">
			<path class="st6" d="M-860,751.9c41,35.5,61.7,57.4,84.8,82.5c1.2,1.3,2.4,2.6,3.5,3.9c-35.3,79.1-46.5,187.1-15.6,265.5
				c-8.9,5.9-17.7,11.7-26.3,17.5c-44.5,29.9-84.5,57.6-110.3,73.8c-27.3,17.2-58.7,25-75.2,12.1c101.4-35.6,124.5-88.4,86.4-109.7
				c-77.1-43.2,34.8-58,55-104.6c25.7-59.5-72.5-21.2-94.2-55.3c-1.8-2.9-2.7-7.3,37.5-20.5c75.1-24.7,6.6-63-0.3-106.6
				c-8.1-51.2,47.2,20.7,81.7,8.7C-825.8,816.6-826.7,812.4-860,751.9z"/>
		</g>
		<g transform="matrix(1.12505,-0.168653,0.168653,1.12505,21.4303,48.635)">
			<path class="st7" d="M622.4,1038.7c1.2,1.3,2.4,2.6,3.5,3.9c-35.3,79.1-46.5,187.1-15.6,265.5c-8.9,5.9-17.7,11.7-26.3,17.5
				c-30.8-13.4-66.5-36.8-39.7-77.5c28-42.6,42.6-53.6,4.4-106.9c-23.9-33.3,28.8-33.4,39.2-64.3
				C590.7,1068.5,587.1,1033.3,622.4,1038.7z"/>
		</g>
		<g transform="matrix(-1.12505,-0.168653,-0.168653,1.12505,939.312,50.0357)">
			<path class="st7" d="M-775.3,834.4c1.2,1.3,2.4,2.6,3.5,3.9c-35.3,79.1-46.5,187.1-15.6,265.5c-8.9,5.9-17.7,11.7-26.3,17.5
				c-30.8-13.4-66.5-36.8-39.7-77.5c28-42.6,42.6-53.6,4.4-106.9c-23.9-33.3,28.8-33.4,39.2-64.3C-807,864.2-810.5,829-775.3,834.4z
				"/>
		</g>
		<g>
			<g transform="matrix(1.12505,-0.168653,0.168653,1.12505,21.4182,49.5704)">
				<path class="st8" d="M511.1,961.6c-5.9-17.9-56.2-63.6-79.4-37.9c-10.6,11.7,22,34.5,47.7,45.5
					C493.3,975.1,511,972.4,511.1,961.6z"/>
			</g>
			<g transform="matrix(-1.12505,-0.168653,-0.168653,1.12505,939.324,50.9711)">
				<path class="st8" d="M-886.5,757.4c-5.9-17.9-56.2-63.6-79.4-37.9c-10.6,11.7,22,34.5,47.7,45.5
					C-904.3,770.9-886.6,768.1-886.5,757.4z"/>
			</g>
			<g transform="matrix(1.12505,-0.168653,0.168653,1.12505,21.4303,48.635)">
				<path class="st8" d="M433.9,997.1c-19.1,11.7-19,24.5-40.4,39.3c-32.9,22.7-8.7,31.9-3.4,31c17.4-2.7,26.1-17.3,32.1-24.9
					c28.6-36.4,46-42,38.6-50.8C454.6,984.4,435.8,996,433.9,997.1z"/>
			</g>
			<g transform="matrix(-1.12505,-0.168653,-0.168653,1.12505,939.312,50.0357)">
				<path class="st8" d="M-963.7,792.9c-19.1,11.7-19,24.5-40.4,39.3c-32.9,22.7-8.7,31.9-3.4,31c17.4-2.7,26.1-17.3,32.1-24.9
					c28.6-36.4,46-42,38.6-50.8C-943,780.2-961.9,791.7-963.7,792.9z"/>
			</g>
			<g transform="matrix(1.12505,-0.168653,0.168653,1.12505,21.4303,48.635)">
				<path class="st8" d="M518.6,1178.7c-15-4.6-16.9-0.1-40-5.6c-52.5-12.6-118.4,33.1-86.4,52.4c19.1,11.5,60.4-18.4,70-22.6
					C492.3,1189.8,539.5,1193.8,518.6,1178.7z"/>
			</g>
			<g transform="matrix(-1.12505,-0.168653,-0.168653,1.12505,939.312,50.0357)">
				<path class="st8" d="M-879,974.4c-15-4.6-16.9-0.1-40-5.6c-52.5-12.6-118.4,33.1-86.4,52.4c19.1,11.5,60.4-18.4,70-22.6
					C-905.3,985.6-858.2,989.5-879,974.4z"/>
			</g>
			<g transform="matrix(1.12505,-0.168653,0.168653,1.12505,21.4303,48.635)">
				<path class="st8" d="M413.7,1252.3c-11.8-6.6,7,30.6,9.4,57.2c1.8,20-8.2,35.3-6.1,39.2c3.2,8.3,12.7,4.6,26-2.7
					c44-24.2,9.2-47.2,6.4-50c-14.4-14-9.5-8-20.2-25C423,1261.4,421.3,1256.6,413.7,1252.3z"/>
			</g>
			<g transform="matrix(-1.12505,-0.168653,-0.168653,1.12505,939.312,50.0357)">
				<path class="st8" d="M-984,1048.1c-11.8-6.6,7,30.6,9.4,57.2c1.8,20-8.2,35.3-6.1,39.2c3.2,8.3,12.7,4.6,26-2.7
					c44-24.2,9.2-47.2,6.4-50c-14.4-14-9.5-8-20.2-25C-974.6,1057.1-976.3,1052.4-984,1048.1z"/>
			</g>
			<path class="st8" d="M1516.4,991.3c-6.8-3.3-168.7-93.4-326.6-52.7c-80.7,20.8-45.8,66.4-3.2,77.1
				c82.4,20.8,183.3-39.3,283.4,39.5c6.5,5.1,71.2,66.7,97.4,16.2C1585.4,1036.6,1533.8,999.7,1516.4,991.3z"/>
		</g>
	</g>
	<g transform="matrix(0.756584,0,0,0.760884,148.343,50.9896)">
		<g transform="matrix(-0.0862393,1.48274,-1.3217,-0.0599519,1386.2,490.901)">
			<path class="st1" d="M447.4-2076.3c-12.8,130.2-30.4,150.6,1.9,231.8c-77.1,60.7-136.2,142.6-178.9,175.5
				c-52.8,40.6-122.3,50.8-109.6-41.6c10-73,17.4-80.1-33.5-133.5c-53.3-56,47.8-96.7-13-176.2c-41.7-54.6-42.1-66.1,3.5-117.5
				c57.3-64.7-2.6-82.9,13.5-142.2c15-55.4,86.9-5.9,107.2,7.7C353.9-2195.1,393.3-2124.7,447.4-2076.3z"/>
		</g>
		<g transform="matrix(0.0381164,1.48183,-1.32396,0.0793938,1509.37,374.893)">
			<path class="st2" d="M499-1541.2c-34.3,21.6-73.8,31.4-94.6,15.2c127.5-44.8,156.6-111.1,108.7-137.9
				c-97-54.3,43.8-72.9,69.1-131.6c32.3-74.8-91.2-26.7-118.4-69.6c-2.3-3.6-3.3-9.2,47.1-25.8c94.4-31.1,8.4-79.2-0.4-134.1
				c-10.2-64.4,59.4,26,102.8,11c8.6-3,7.9-8-29.6-76.3c33,33.7,56.5,64.8,77,92.8c11.5,15.6,22,30.3,32.8,43.9
				c-37.9,89.1-57.1,186.4-30.5,275.5c-22.5,16.6-43.7,34.4-63.3,51.7C559.6-1591.1,525.7-1558,499-1541.2z"/>
		</g>
		<g transform="matrix(0.04596,1.78676,-1.50828,0.0904472,1647.77,294.782)">
			<path class="st3" d="M588.1-1660.3c9.5,13.7,18.3,26.6,27.2,38.6c5.4,7.2,10.8,14,16.5,20.5c-20.7,112.7-36.8,129.1-16.4,202.7
				c-8.7,5.9-17.1,12.1-25.3,18.6c-18.7,14.6-36.2,30.2-52.5,45.4c-31.3-17.8-56.5-45.1-28.9-87.1c35.3-53.5,53.5-67.4,5.5-134.4
				c-30-41.9,36.2-42,49.3-80.9C566-1644.8,568.7-1657.2,588.1-1660.3z"/>
		</g>
		<g transform="matrix(1,0,0,1,48.9853,10.2457)">
			<path class="st1" d="M3702.6,1189.4c37.4-43.3,89.9-51.2,147.1-51.2c22.8,0,47.3,0,70.1,0c56.8,0,112.6,7.6,150,50.5
				c177.7,209.2,511,669.3,465.6,906.4c-16.1,84.2-28.7,127-124.1,151.5c-210.5,54.2-352.8,76-488.2,77.1
				c-143.8,4.9-354.6-22.9-565.2-77.1c-95.4-24.6-136.5-81.3-133-154.1C3240.1,1766.4,3525.5,1395.3,3702.6,1189.4z"/>
		</g>
		<g transform="matrix(1.23213,0,0,1.23213,214.133,601.953)">
			<g transform="matrix(1.058,0,0,1,-74.9325,0.65911)">
				<path class="st32" d="M2740.8,754l109.5,171h-219L2740.8,754z"/>
			</g>
			<g transform="matrix(-1.058,0,0,1,568.246,0.65911)">
				<path class="st32" d="M-2495.7,754l109.5,171h-219L-2495.7,754z"/>
			</g>
			<g transform="matrix(1.2465,0,0,1.21486,-57.9586,-50.1238)">
				<path class="st32" d="M2466.7,804.8l44.4,67.8h-88.9L2466.7,804.8z"/>
			</g>
			<path class="st32" d="M2962.2,1236.2C2810,1221,2694,1143.3,2694,1049.7h113.5v61.3h109v-61.3H3117v61.3h109v-61.3h113.5
				c0,93.6-115.9,171.3-268.2,186.5v-72.6h-109V1236.2z"/>
		</g>
		<g>
			<path class="st2" d="M4168.8,1259.4c17.8,22.2,36.6,46,55.8,71.2c-26.1-16.6-50.1-29-76.2-40.1c-18.1-7.7-37.3-14.9-59-22.5
				c6.6,22.2,10.8,38.5,13.7,52.5c6.1,29.2,6.3,49,9.1,92.2c-34.2-58.6-52.9-87.8-143.6-135.6c-29.5,82.6-40.9,113.5-45.5,237
				c-16.2-37-42.1-98-56.6-181.2c-61.7,66.7-115.1,142.9-155.6,222.5c-31.2,61.2-54.7,124.5-68.4,187
				c-11.4,52-16.1,103.5-12.7,152.9c4.6,67.1,24,130.4,61.3,185.8c10.9,16.2,23.4,31.7,37.5,46.5c121.2,127,522.9,157.5,852.3-3.8
				c-12.3,59.8-26.5,96.3-81.6,120c-11.2,4.8-24,9.1-38.8,12.9c-210.5,54.2-352.8,76-488.2,77.1c-120.5,4.1-288.2-14.7-463.3-52.9
				c-103.3-75.2-201.6-202-114.4-467c17.8-53.9,84-255,325.4-549.4c27.4-33.5,57.1-68.1,89.3-103.9c27.2-9.7,57.6-12.2,89.5-12.2
				c22.8,0,47.3,0,70.1,0c56.8,0,112.6,7.6,150,50.5c15.6,18.3,32.3,38.5,49.9,60.4c0,0,0,0.1-0.1,0.1
				C4168.6,1259.3,4168.7,1259.4,4168.8,1259.4z M4069.4,1306c-1.8-1.7-3.5-3.3-5.2-4.9c0.3,1,0.5,2.1,0.8,3.1
				C4066.4,1304.8,4067.9,1305.4,4069.4,1306z"/>
			<path class="st3" d="M4499.1,2243.8c-11.2,4.8-24,9.1-38.8,12.9c-210.5,54.2-352.8,76-488.2,77.1
				c-120.5,4.1-288.2-14.7-463.3-52.9c-103.3-75.2-201.6-202-114.4-467c17.8-53.9,84-255,325.4-549.4
				c27.4-33.5,57.1-68.1,89.3-103.9c27.2-9.7,57.6-12.1,89.5-12.2c22.8,0,47.3,0,70.1,0c56.8,0,112.9,7.4,150,50.5
				c15.7,18.2,32.3,38.5,49.9,60.4l-0.1,0.1c-52.4-24-90.8-35.4-136.3-44.4c7.6,13.7,19.8,38.8,31.9,86.2
				c-48.2-45.2-82.2-66.8-100.9-77c-7.5,14.1-14,27.4-19.7,40.3c-1.2,2.7-2.3,5.4-3.5,8.1c-15.1,36.4-23.5,70-30,110.3
				c-10.4-30.8-16.8-53.7-20.9-73.9c-2.3-11.4-3.8-22-4.9-32.6c-1.4-13.9-2.1-27.8-2.6-43.8c-24.5,20.6-48.7,43.1-72.4,67.2
				c-218,221.7-389.3,575.5-272.3,769.7C3702,2343.5,4233,2290.9,4499.1,2243.8z"/>
			<path class="st33" d="M3642.3,1742.4h-90.4l142.8-210.7l16,23.7C3679.5,1616.7,3656,1679.9,3642.3,1742.4z"/>
			<path class="st33" d="M3690.9,2081.1c-95.6-42.6-157.4-109.9-157.4-185.8h96.1C3634.2,1962.5,3653.6,2025.7,3690.9,2081.1z"/>
		</g>
		<g>
			<g transform="matrix(0.0381164,1.48183,-1.32396,0.0793938,1508.29,374.762)">
				<path class="st4" d="M546-2091.3c-0.2,13.5-22.4,17-40,9.5c-32.2-13.7-73.3-42.4-59.9-57.2
					C475.3-2171.3,538.5-2113.8,546-2091.3z M449-2047.7c2.4-1.4,26.1-16,33.9-6.8c9.4,11.1-12.6,18.2-48.5,63.9
					c-7.5,9.6-18.5,27.9-40.4,31.3c-6.7,1.1-37.1-10.5,4.2-39C425.1-2016.9,425-2033.1,449-2047.7z M555.6-1819.4
					c26.2,19-33.1,14-70.9,30.5c-12.1,5.3-64,42.8-88,28.4c-40.3-24.3,42.6-81.7,108.6-65.9C534.3-1819.5,536.8-1825.2,555.6-1819.4
					z M423.5-1726.8c9.7,5.4,11.8,11.4,19.4,23.5c13.4,21.4,7.2,13.8,25.4,31.5c3.6,3.5,47.3,32.4-8,62.8
					c-16.7,9.2-28.6,13.9-32.7,3.4c-2.6-4.9,10-24.2,7.7-49.3C432.3-1688.4,408.6-1735.2,423.5-1726.8z"/>
			</g>
			<g transform="matrix(1.06246,0,0,1.03472,-38.2634,-31.6704)">
				<path class="st4" d="M4115.2,1661.9c-56.5-105.4-156.1-216.3-140.5-283.6c4.9-21,49.2-36.9,190.4,210.5
					c88.5,155,257.8,466.7,77.2,484.8c-5.3,0.5-54.2,5.4-45.5-47.9C4209.6,1946.1,4225.8,1868.1,4115.2,1661.9z"/>
			</g>
		</g>
	</g>
	<g transform="matrix(1.48356,0,0,1.49199,-391.379,-672.184)">
		<g>
			<g transform="matrix(6.12323e-17,-1,1.08656,6.65324e-17,92.8117,2348.51)">
				<path class="st21" d="M224.9,451.5c15-9.4,37.6-20.9,72.7-34.2c34.4-13.1,81.6,3.3,95.3,29.3c11.4,21.6,11,56.6,2.1,84.6
					c-1.2,3.8-2.6,7.6-4.1,11.1c-62-30.5-165.4-56.9-195.3-65.6C199.7,471.4,206.6,463,224.9,451.5z"/>
			</g>
			<g transform="matrix(6.12323e-17,-1,1.08656,6.65324e-17,92.8117,2348.51)">
				<path class="st21" d="M192.7,903.7c1-0.9,2-1.8,3.1-2.8c49.8,44.2,132,60.2,178.8,55.5c4,3.7,7.5,7.3,10.5,10.7
					c64.8,75.2-113.9,94-179.5,51.6C171.2,996.4,147.7,945.6,192.7,903.7z"/>
			</g>
			<g transform="matrix(6.12323e-17,-1,1.08656,6.65324e-17,92.8117,2348.51)">
				<path class="st9" d="M385,967.1c-34,10.8-89.5-2.6-144.7-30.6c-21.6-10.9-36.9-22-47.6-32.8c-39.3-39.8-15.2-76.2-2.2-90.7
					c0.9-1,1.7-1.9,2.5-2.6c56.8,42.8,142,70.7,193.7,58.5c0.7,0.7,1.5,1.5,2.4,2.5c13,14.1,47.3,56.2,14.4,85.6
					C398.4,961.5,392.2,964.8,385,967.1z"/>
			</g>
			<g transform="matrix(6.12323e-17,-1,1.08656,6.65324e-17,92.8117,2348.51)">
				<path class="st21" d="M389.1,871.3c-32.8,16.2-92.9,2.9-152.8-27.4c-20.4-10.3-35.2-20.7-45.8-31c-41.4-40.1-17.7-77-4.4-92.1
					c1-1.2,2-2.2,2.9-3.1c56.8,42.8,142,70.8,193.7,58.6c1.2,1.2,2.9,3,4.8,5.2c14.3,16.2,43,55.2,12,82.9
					C396.4,867.1,392.9,869.4,389.1,871.3z"/>
			</g>
			<g transform="matrix(6.12323e-17,-1,1.08656,6.65324e-17,92.8117,2348.51)">
				<path class="st9" d="M387.5,781.4c-32.7,16.5-93.1,3.3-153.2-27.2c-22-11.1-37.5-22.4-48.2-33.4c-40.1-41.2-12.4-78.7,0-91.9
					c0.3-0.3,0.6-0.6,0.9-0.9c56.8,42.8,142,70.7,193.7,58.5c2.4,2.5,6.5,6.8,10.9,12.5c14.6,18.7,33,51.5,5.9,75.7
					C394.5,777.3,391.2,779.6,387.5,781.4z"/>
			</g>
			<g transform="matrix(6.12323e-17,-1,1.08656,6.65324e-17,92.8117,2348.51)">
				<path class="st21" d="M391.5,699c-33.3,14.3-91.9,1-150.2-28.6c-27.4-13.9-44.8-28-55.3-41.5c-0.9-1.2-1.6-2.1-2.7-3.7
					c-23.6-34.2-4.2-64.3,7.5-77.7c1.1-1.3,2.2-2.4,3.1-3.3c56.8,42.8,142,70.7,193.7,58.5c1.8,1.9,4.5,4.8,7.7,8.5
					c14.8,17.7,38.2,53.7,9.1,79.7C400.7,694.2,396.4,696.9,391.5,699z"/>
			</g>
			<g transform="matrix(6.12323e-17,-1,1.08656,6.65324e-17,92.8117,2348.51)">
				<path class="st9" d="M395.3,611.3c-32.7,16.5-93.1,3.3-153.2-27.2c-24.1-12.3-40.5-24.6-51.3-36.5c-33.9-37.5-11.9-71.1,0.6-85
					c6.5-7.3,22.1-14.1,33.5-11.1c0,0,0,0,0,0c35.7,22.4,127.7,66.1,170.1,79.7c1.3,0.4,2.1,1.6,3,2.4c16.5,13.5,36,45.3,7.3,71
					C402.4,607.2,399,609.4,395.3,611.3z"/>
			</g>
		</g>
		<g>
			<path class="st24" d="M646,1948.5c4.4,0.6,8.7,1.3,12.9,2.3c3.7,0.8,7.4,1.7,11,2.8c-12.9,37.3-51.2,112.9-76.8,154.8
				c-1.6,2.7-3.2,5.3-4.8,7.7c-8.2-11.8-21.4-34.9-25-42.3c-10.3-21.3-14.2-33.1-16.5-44.4c19.1,24.8,52.8,30.4,76.8-8.2
				C640.9,1993.5,645,1969.4,646,1948.5z"/>
			<path class="st23" d="M659,1950.7c3.7,0.8,7.4,1.7,11,2.8c-12.9,37.3-51.2,112.9-76.8,154.8c-15.2-18.2-28.9-36.6-6.9-46.2
				c16.6-7.2,36.7-11.7,63.3-71.9C656.5,1974.7,657,1966.5,659,1950.7z"/>
			<path class="st31" d="M745.9,1939.6c1.3,1.1,2.6,2.3,3.8,3.6c1.6,1.7,3.1,3.4,4.4,5.3c1,1.5,2,3,2.9,4.7
				c17.9,32.7,3.5,93.1-29.6,153.2c-7,12.7-14,23.3-21,32c-2.1,2.6-4.2,5.1-6.3,7.4c-1.8,1.2-3.7,2.4-5.9,3.8
				c-0.1,0.1-0.6,0.3-1.3,0.7c-1.6,0.9-4.7,2.5-8.8,4.3c-5.5,2.4-12.8,5.2-20.9,7.1c-57.5,13.4-72.3-20.3-76.2-32.8
				c0,0,0.1,0,0.1,0.1c9.4,5.5,19,7.8,28.4,8c35.6,0.7,68.2-29.7,77.4-40.8C734.9,2045,746.9,2000.2,745.9,1939.6z"/>
			<path class="st34" d="M729,2080.3c18.6-42.9,27-87.5,18.8-119.5c1.7-1.5,4.2-3.7,7.3-6.1c0.6-0.5,1.3-1,1.9-1.5
				c17.9,32.7,3.5,93.1-29.6,153.2c-7,12.7-14,23.3-21,32c-5.4,2.7-10.4,4.9-14.8,6.7c-1.6,0.6-3.1,1.3-4.6,1.8
				c-31,11.5-35.8,1.7-33.5-1.4C662.9,2132.4,705.8,2119.6,729,2080.3z"/>
			<path class="st24" d="M757,1953.2c1.8-1.4,3.8-2.8,5.9-4.3c2.8-2,5.9-4,9.1-5.9c31.9,45.4-1.9,108.6-14.6,143
				c-8,21.6-24.2,62.3,17.5,69.5c-8.2,6-19.7,12.2-35.8,13.9c-23.4,2.6-43.4-7.3-51.3-11.7c2.3-1.9,4.7-4.1,7.1-6.4
				c1.7-1.7,3.5-3.5,5.2-5.4c2.1-2.3,4.2-4.8,6.3-7.4c7-8.7,14-19.3,21-32C760.6,2046.3,775,1985.9,757,1953.2z"/>
			<path class="st23" d="M757,1953.2c1.8-1.4,3.8-2.8,5.9-4.3c32.2,96.7-46.4,154.4-32.3,186.4c0.1,0.3,8.9,13.2-3,18.8
				c-10.9,5.2-23.1,1.9-32.7-2.8c1.7-1.7,3.5-3.5,5.2-5.4c2.1-2.3,4.2-4.8,6.3-7.4c7-8.7,14-19.3,21-32
				C760.6,2046.3,775,1985.9,757,1953.2z"/>
			<path class="st31" d="M852.4,1957c1.3-1,2.7-1.9,4.2-2.9c4.9-3.3,10.4-6.6,16.3-9.4c28.2,45.1-4.3,106.2-16.7,139.8
				c-7.7,21-23.3,60.1,14.2,68.8c-7,6.1-18.2,13.6-35.3,18.4c-22.1,6.2-39.7-0.6-50.5-6.7c-2.5-1.4-4.7-2.8-6.4-4
				c1.9-1.4,3.8-3,5.7-4.7c12.3-10.7,24.9-26.5,37.4-49.2C853.4,2048.9,867.9,1990.3,852.4,1957z"/>
			<path class="st34" d="M852.4,1957c1.3-1,2.7-1.9,4.2-2.9c5.3,10.9,11.6,31.1,6.6,62.7c-9.9,63-32.7,79.8-34.7,113.3
				c-1.8,29.4-7.1,35.4-43.9,35c-2.5-1.4-4.7-2.8-6.4-4c1.9-1.4,3.8-3,5.7-4.7c12.3-10.7,24.9-26.5,37.4-49.2
				C853.4,2048.9,867.9,1990.3,852.4,1957z"/>
			<path class="st24" d="M941.9,1961c1.3-1.1,2.7-2.2,4.3-3.4c4.3-3.3,9.5-6.9,15.3-10.3c27,45-5.1,105.4-17.4,138.7
				c-8.1,22.1-24.9,64.1,20.4,69.9c-27.7,25.9-58.2,18-80.4,8.1c-2.3-1-4.5-2-6.6-3.1c2-1.9,4-3.8,6-6c9.5-10.1,19.1-23.4,28.7-40.8
				C945.5,2054.2,959.9,1993.8,941.9,1961z"/>
			<path class="st23" d="M941.9,1961c1.3-1.1,2.7-2.2,4.3-3.4c20,34,4.7,80.5,4.1,82.6c-14.9,57.7-28.1,64.7-31.9,92.1
				c-3.6,25.3-7.1,29.2-34.1,31.6c-2.3-1-4.5-2-6.6-3.1c2-1.9,4-3.8,6-6c9.5-10.1,19.1-23.4,28.7-40.8
				C945.5,2054.2,959.9,1993.8,941.9,1961z"/>
			<path class="st31" d="M1039.6,1959.4c0.9-0.8,1.9-1.6,3-2.5c4.9-4,11.8-9.1,19.7-13.7c26.5,44.9-5.4,105-17.6,138.2
				c-8.3,22.6-25.7,65.9,23.4,70.2c-7.3,6.8-19.5,15.4-40.8,17.8c-13.5,1.5-25.8-1.9-36.2-6.2c-5-2.1-9.6-4.4-13.7-6.4
				c0.1-0.1,0.1-0.1,0.2-0.2c10.7-10.5,21.5-24.9,32.2-44.4C1042.8,2052.4,1057.2,1992.3,1039.6,1959.4z"/>
			<path class="st34" d="M1039.6,1959.4c0.9-0.8,1.9-1.6,3-2.5c10.5,17,13.7,36.7,6.9,71.6c-10.9,56-34.4,69.8-29.6,103.4
				c3.6,25.2-3,30-28.7,31.3c-5-2.1-9.6-4.4-13.7-6.4l0.2-0.2c10.7-10.5,21.5-24.9,32.2-44.4
				C1042.8,2052.4,1057.2,1992.3,1039.6,1959.4z"/>
			<path class="st24" d="M1143.7,1963.5c3.5-2.7,6.8-5,10-6.9c17,42-6.5,100.9-17.9,132.2c-13.8,38.3,57.2,102.2,77.6-105.3
				c9.7,24.9,12.6,59.8,8.6,92.5c-2.1,16.9-6,33.2-11.8,47.2c-9.4,14.2-23,28.2-44.1,37.5c-41,18-73.1-0.5-84.7-8.7
				c-0.6-0.4-1.1-0.8-1.5-1.1c10.1-10.3,20.3-24.2,30.4-42.6c12.1-21.9,21.6-43.8,28.1-64.4
				C1148.2,2012.4,1150.8,1984,1143.7,1963.5z"/>
			<path class="st23" d="M1222.1,2076c-2.1,16.9-6,33.2-11.8,47.2c-9.4,14.2-23,28.2-44.1,37.5c-41,18-73.1-0.5-84.7-8.7
				c-0.6-0.4-1.1-0.8-1.5-1.1c10.1-10.3,20.3-24.2,30.4-42.6c12.1-21.9,21.6-43.8,28.1-64.4c-2.3,18.5-7,31.2-17.6,60.6
				c-18,49.8,29.6,48,45.5,40.8C1198.5,2130.7,1213.8,2103.9,1222.1,2076z"/>
		</g>
		<g>
			<path class="st22" d="M600.8,1978.7c-9.6,2.7-29,20.8-35.7,6.1c-6-13.3,24-33.4,54.5-31.3c16.9,1.2,18.7,18.9,3.1,22.3
				c-4.3,1-10.6,1.1-11.1,1.1C606.6,1977.3,603.7,1977.9,600.8,1978.7z"/>
			<path class="st35" d="M607.2,2101.2c63-96.4,57.5-161.4,109.4-164.1c22-1.1,26.1,15.9,8.7,26.9c-43.1,27.4-55.1,54.9-71.6,85.5
				c-9.1,16.8-27.3,63.8-43.5,62.7C606.1,2111.9,605.1,2104.4,607.2,2101.2z"/>
			<path class="st22" d="M824.6,1983.3c-13.9-28.9-38.1-16-39.9-33.3c-1.4-13.6,53-25,64.1,21c3.5,14.6,1.5,32.7-1.5,54.5
				c-3.5,26-19.5,32.7-24.2,23.4C817.8,2038.3,831.9,2017.6,824.6,1983.3z"/>
			<path class="st35" d="M915,1990.2c-3.9-24.5-21.8-24.4-26.1-29.4c-6.1-7-3.9-15.6,8.6-17.2c21.3-2.8,39.8,14.7,43.5,35.5
				c7.1,40.4-17.3,101.1-26.6,80.9C909.4,2049.2,918,2008.7,915,1990.2z"/>
			<path class="st22" d="M1004.5,2001.1c-8.4-6.9-16.1-17-20.8-24.2c-11.6-17.8-13.3-38.9,19.3-33.3c78,13.4,6.2,201.4-18.1,154.5
				C975.2,2079.3,1024.9,2017.8,1004.5,2001.1z"/>
			<path class="st35" d="M1106.2,1999.7c-8.2-27.9-36.6-39.4-19-55.1c14.7-13.1,61.2,2.6,46.9,74.8c-1.3,6.6-4.4,34.9-29.5,68.6
				c-20.2,27.1-27.7,9.7-27,3C1080.1,2069.4,1114.3,2044.1,1106.2,1999.7z"/>
			<path class="st22" d="M1169.2,1967.8c16.7,62.5-17.3,100.3,0,103.2c19.9,3.4,30.4-48.8,31.1-62.1
				C1203.5,1949.6,1163.3,1947.3,1169.2,1967.8z"/>
		</g>
	</g>
</g>
</svg>
