<?xml version="1.0" encoding="UTF-8" standalone="no"?>
<!-- Created with Inkscape (http://www.inkscape.org/) -->

<svg
   version="1.1"
   id="svg4607"
   width="800"
   height="800"
   viewBox="0 0 800 800"
   sodipodi:docname="sweet-candy-art-publicdomainvectors.org.svg"
   inkscape:version="1.2 (dc2aedaf03, 2022-05-15)"
   xmlns:inkscape="http://www.inkscape.org/namespaces/inkscape"
   xmlns:sodipodi="http://sodipodi.sourceforge.net/DTD/sodipodi-0.dtd"
   xmlns="http://www.w3.org/2000/svg"
   xmlns:svg="http://www.w3.org/2000/svg">
  <defs
     id="defs4611">
    <clipPath
       clipPathUnits="userSpaceOnUse"
       id="clipPath4623">
      <path
         d="M 0,600 H 600 V 0 H 0 Z"
         id="path4621" />
    </clipPath>
  </defs>
  <sodipodi:namedview
     id="namedview4609"
     pagecolor="#ffffff"
     bordercolor="#000000"
     borderopacity="0.25"
     inkscape:showpageshadow="2"
     inkscape:pageopacity="0.0"
     inkscape:pagecheckerboard="0"
     inkscape:deskcolor="#d1d1d1"
     showgrid="false"
     inkscape:zoom="1.04625"
     inkscape:cx="399.5221"
     inkscape:cy="400.4779"
     inkscape:window-width="1920"
     inkscape:window-height="1017"
     inkscape:window-x="-8"
     inkscape:window-y="-8"
     inkscape:window-maximized="1"
     inkscape:current-layer="g4615">
    <inkscape:page
       x="0"
       y="0"
       id="page4613"
       width="800"
       height="800" />
  </sodipodi:namedview>
  <g
     id="g4615"
     inkscape:groupmode="layer"
     inkscape:label="Page 1"
     transform="matrix(1.3333333,0,0,-1.3333333,0,800)">
    <g
       id="g4617">
      <g
         id="g4619"
         clip-path="url(#clipPath4623)">
        <g
           id="g4625"
           transform="translate(179.5352,136.0225)">
          <path
             d="m 0,0 c 49.993,0 90.766,25.614 90.766,57.019 0,31.405 -40.773,57.019 -90.766,57.019 -49.992,0 -90.766,-25.614 -90.766,-57.019 C -90.766,25.614 -49.992,0 0,0"
             style="fill:#e7e8e1;fill-opacity:1;fill-rule:evenodd;stroke:none"
             id="path4627" />
        </g>
        <g
           id="g4629"
           transform="translate(501.7324,205.0605)">
          <path
             d="m 0,0 c 45.756,0 83.076,23.444 83.076,52.188 0,28.746 -37.32,52.19 -83.076,52.19 -45.758,0 -83.076,-23.444 -83.076,-52.19 C -83.076,23.444 -45.758,0 0,0"
             style="fill:#e7e8e1;fill-opacity:1;fill-rule:evenodd;stroke:none"
             id="path4631" />
        </g>
        <g
           id="g4633"
           transform="translate(425.7891,149.0908)">
          <path
             d="M 0,0 C 49.875,0 90.553,25.553 90.553,56.885 90.553,88.216 49.875,113.77 0,113.77 -49.875,113.77 -90.551,88.216 -90.551,56.885 -90.551,25.553 -49.875,0 0,0"
             style="fill:#e7e8e1;fill-opacity:1;fill-rule:evenodd;stroke:none"
             id="path4635" />
        </g>
        <g
           id="g4637"
           transform="translate(298.4473,475.8447)">
          <path
             d="M 0,0 C 27.584,0 50.082,14.133 50.082,31.462 50.082,48.791 27.584,62.923 0,62.923 -27.585,62.923 -50.083,48.791 -50.083,31.462 -50.083,14.133 -27.585,0 0,0"
             style="fill:#e7e8e1;fill-opacity:1;fill-rule:evenodd;stroke:none"
             id="path4639" />
        </g>
        <g
           id="g4641"
           transform="translate(284.9175,478.9644)">
          <path
             d="M 0,0 C 30.622,0 55.596,15.69 55.596,34.926 55.596,54.163 30.622,69.852 0,69.852 -30.621,69.852 -55.597,54.163 -55.597,34.926 -55.597,15.69 -30.621,0 0,0"
             style="fill:#892f1b;fill-opacity:1;fill-rule:evenodd;stroke:none"
             id="path4643" />
        </g>
        <g
           id="g4645"
           transform="translate(269.8374,545.437)">
          <path
             d="M 0,0 C 18.569,1.595 33.622,-6.569 33.622,-18.233 33.622,-29.898 18.569,-40.647 0,-42.241 -18.567,-43.835 -33.62,-35.672 -33.62,-24.007 -33.62,-12.343 -18.567,-1.594 0,0"
             style="fill:#a33b1f;fill-opacity:1;fill-rule:evenodd;stroke:none"
             id="path4647" />
        </g>
        <g
           id="g4649"
           transform="translate(323.9336,538.7681)">
          <path
             d="m 0,0 c 10.234,-6.334 16.58,-15.14 16.58,-24.878 0,-19.288 -24.891,-34.926 -55.596,-34.926 -21.096,0 -39.447,7.382 -48.868,18.258 10.037,-6.213 23.813,-10.048 39.016,-10.048 30.706,0 55.598,15.637 55.598,34.926 C 6.73,-10.631 4.291,-4.954 0,0"
             style="fill:#6b2516;fill-opacity:1;fill-rule:evenodd;stroke:none"
             id="path4651" />
        </g>
        <g
           id="g4653"
           transform="translate(312.4453,530.0693)">
          <path
             d="m 0,0 c 2.926,0 5.297,-1.893 5.297,-4.228 0,-2.334 -2.371,-4.227 -5.297,-4.227 -2.922,0 -5.293,1.893 -5.293,4.227 C -5.293,-1.893 -2.922,0 0,0 m -15.021,10.918 c 4.783,0 8.66,-2.886 8.66,-6.444 0,-3.559 -3.877,-6.444 -8.66,-6.444 -4.783,0 -8.66,2.885 -8.66,6.444 0,3.558 3.877,6.444 8.66,6.444"
             style="fill:#de713e;fill-opacity:1;fill-rule:evenodd;stroke:none"
             id="path4655" />
        </g>
        <g
           id="g4657"
           transform="translate(373.0371,431.3555)">
          <path
             d="M 0,0 C 32.293,0 58.633,16.547 58.633,36.834 58.633,57.122 32.293,73.67 0,73.67 -32.297,73.67 -58.637,57.122 -58.637,36.834 -58.637,16.547 -32.297,0 0,0"
             style="fill:#e7e8e1;fill-opacity:1;fill-rule:evenodd;stroke:none"
             id="path4659" />
        </g>
        <g
           id="g4661"
           transform="translate(355.2734,437.3145)">
          <path
             d="M 0,0 C 35.852,0 65.09,18.368 65.09,40.89 65.09,63.412 35.852,81.781 0,81.781 -35.852,81.781 -65.092,63.412 -65.092,40.89 -65.092,18.368 -35.852,0 0,0"
             style="fill:#87b027;fill-opacity:1;fill-rule:evenodd;stroke:none"
             id="path4663" />
        </g>
        <g
           id="g4665"
           transform="translate(337.6172,515.1392)">
          <path
             d="M 0,0 C 21.74,1.867 39.363,-7.691 39.363,-21.347 39.363,-35.004 21.74,-47.588 0,-49.455 c -21.738,-1.867 -39.361,7.691 -39.361,21.348 0,13.656 17.623,26.24 39.361,28.107"
             style="fill:#9ac421;fill-opacity:1;fill-rule:evenodd;stroke:none"
             id="path4667" />
        </g>
        <g
           id="g4669"
           transform="translate(400.9531,507.3311)">
          <path
             d="m 0,0 c 11.98,-7.416 19.41,-17.725 19.41,-29.126 0,-22.584 -29.14,-40.891 -65.09,-40.891 -24.699,0 -46.185,8.642 -57.213,21.376 11.75,-7.274 27.879,-11.765 45.68,-11.765 35.949,0 65.09,18.308 65.09,40.891 C 7.877,-12.447 5.023,-5.8 0,0"
             style="fill:#769a2a;fill-opacity:1;fill-rule:evenodd;stroke:none"
             id="path4671" />
        </g>
        <g
           id="g4673"
           transform="translate(387.5039,497.1465)">
          <path
             d="m 0,0 c 3.424,0 6.199,-2.216 6.199,-4.95 0,-2.733 -2.775,-4.949 -6.199,-4.949 -3.424,0 -6.199,2.216 -6.199,4.949 C -6.199,-2.216 -3.424,0 0,0 m -17.588,12.782 c 5.6,0 10.141,-3.377 10.141,-7.544 0,-4.167 -4.541,-7.545 -10.141,-7.545 -5.601,0 -10.14,3.378 -10.14,7.545 0,4.167 4.539,7.544 10.14,7.544"
             style="fill:#c6e446;fill-opacity:1;fill-rule:evenodd;stroke:none"
             id="path4675" />
        </g>
        <g
           id="g4677"
           transform="translate(209.9561,448.0786)">
          <path
             d="M 0,0 C 35.851,0 65.091,18.369 65.091,40.89 65.091,63.412 35.851,81.781 0,81.781 -35.851,81.781 -65.091,63.412 -65.091,40.89 -65.091,18.369 -35.851,0 0,0"
             style="fill:#ea3121;fill-opacity:1;fill-rule:evenodd;stroke:none"
             id="path4679" />
        </g>
        <g
           id="g4681"
           transform="translate(192.3003,525.9033)">
          <path
             d="M 0,0 C 21.74,1.867 39.362,-7.691 39.362,-21.347 39.362,-35.004 21.74,-47.588 0,-49.455 c -21.739,-1.867 -39.362,7.691 -39.362,21.348 0,13.656 17.623,26.24 39.362,28.107"
             style="fill:#f14725;fill-opacity:1;fill-rule:evenodd;stroke:none"
             id="path4683" />
        </g>
        <g
           id="g4685"
           transform="translate(255.6362,518.0952)">
          <path
             d="m 0,0 c 11.981,-7.416 19.41,-17.725 19.41,-29.126 0,-22.584 -29.141,-40.891 -65.091,-40.891 -24.698,0 -46.183,8.642 -57.213,21.376 11.752,-7.274 27.88,-11.764 45.68,-11.764 35.949,0 65.091,18.307 65.091,40.89 C 7.877,-12.447 5.023,-5.799 0,0"
             style="fill:#cc2d23;fill-opacity:1;fill-rule:evenodd;stroke:none"
             id="path4687" />
        </g>
        <g
           id="g4689"
           transform="translate(242.187,507.9102)">
          <path
             d="m 0,0 c 3.423,0 6.198,-2.216 6.198,-4.949 0,-2.734 -2.775,-4.949 -6.198,-4.949 -3.424,0 -6.199,2.215 -6.199,4.949 C -6.199,-2.216 -3.424,0 0,0 m -17.589,12.783 c 5.601,0 10.141,-3.378 10.141,-7.544 0,-4.168 -4.54,-7.545 -10.141,-7.545 -5.6,0 -10.139,3.377 -10.139,7.545 0,4.166 4.539,7.544 10.139,7.544"
             style="fill:#f8a08c;fill-opacity:1;fill-rule:evenodd;stroke:none"
             id="path4691" />
        </g>
        <g
           id="g4693"
           transform="translate(277.6167,417.3232)">
          <path
             d="m 0,0 c 35.85,0 65.092,18.369 65.092,40.891 0,22.522 -29.242,40.89 -65.092,40.89 -35.851,0 -65.091,-18.368 -65.091,-40.89 C -65.091,18.369 -35.851,0 0,0"
             style="fill:#fab40a;fill-opacity:1;fill-rule:evenodd;stroke:none"
             id="path4695" />
        </g>
        <g
           id="g4697"
           transform="translate(259.9614,495.1484)">
          <path
             d="M 0,0 C 21.74,1.866 39.363,-7.691 39.363,-21.348 39.363,-35.004 21.74,-47.589 0,-49.455 c -21.739,-1.867 -39.362,7.69 -39.362,21.347 0,13.656 17.623,26.241 39.362,28.108"
             style="fill:#f9de1c;fill-opacity:1;fill-rule:evenodd;stroke:none"
             id="path4699" />
        </g>
        <g
           id="g4701"
           transform="translate(323.2969,487.3398)">
          <path
             d="m 0,0 c 11.98,-7.415 19.412,-17.725 19.412,-29.126 0,-22.583 -29.144,-40.891 -65.092,-40.891 -24.699,0 -46.185,8.643 -57.214,21.375 11.752,-7.272 27.88,-11.763 45.681,-11.763 35.947,0 65.092,18.307 65.092,40.89 C 7.879,-12.448 5.022,-5.799 0,0"
             style="fill:#f39c0f;fill-opacity:1;fill-rule:evenodd;stroke:none"
             id="path4703" />
        </g>
        <g
           id="g4705"
           transform="translate(309.8477,477.1553)">
          <path
             d="m 0,0 c 3.424,0 6.199,-2.216 6.199,-4.949 0,-2.734 -2.775,-4.95 -6.199,-4.95 -3.424,0 -6.199,2.216 -6.199,4.95 C -6.199,-2.216 -3.424,0 0,0 m -17.588,12.783 c 5.6,0 10.141,-3.378 10.141,-7.545 0,-4.167 -4.541,-7.544 -10.141,-7.544 -5.6,0 -10.139,3.377 -10.139,7.544 0,4.167 4.539,7.545 10.139,7.545"
             style="fill:#fcf894;fill-opacity:1;fill-rule:evenodd;stroke:none"
             id="path4707" />
        </g>
        <g
           id="g4709"
           transform="translate(388.0293,377.5342)">
          <path
             d="M 0,0 C 32.295,0 58.635,16.546 58.635,36.835 58.635,57.122 32.295,73.669 0,73.669 -32.295,73.669 -58.635,57.122 -58.635,36.835 -58.635,16.546 -32.295,0 0,0"
             style="fill:#e7e8e1;fill-opacity:1;fill-rule:evenodd;stroke:none"
             id="path4711" />
        </g>
        <g
           id="g4713"
           transform="translate(372.1875,381.1865)">
          <path
             d="m 0,0 c 35.852,0 65.092,18.369 65.092,40.891 0,22.521 -29.24,40.89 -65.092,40.89 -35.85,0 -65.09,-18.369 -65.09,-40.89 C -65.09,18.369 -35.85,0 0,0"
             style="fill:#892f1b;fill-opacity:1;fill-rule:evenodd;stroke:none"
             id="path4715" />
        </g>
        <g
           id="g4717"
           transform="translate(354.5332,459.0107)">
          <path
             d="M 0,0 C 21.74,1.867 39.361,-7.69 39.361,-21.347 39.361,-35.003 21.74,-47.588 0,-49.455 c -21.738,-1.867 -39.361,7.691 -39.361,21.348 0,13.656 17.623,26.241 39.361,28.107"
             style="fill:#a33b1f;fill-opacity:1;fill-rule:evenodd;stroke:none"
             id="path4719" />
        </g>
        <g
           id="g4721"
           transform="translate(417.8691,451.2031)">
          <path
             d="m 0,0 c 11.98,-7.417 19.41,-17.726 19.41,-29.126 0,-22.583 -29.14,-40.891 -65.092,-40.891 -24.699,0 -46.183,8.642 -57.213,21.375 11.753,-7.273 27.881,-11.764 45.68,-11.764 35.951,0 65.092,18.307 65.092,40.891 C 7.877,-12.448 5.023,-5.8 0,0"
             style="fill:#6b2516;fill-opacity:1;fill-rule:evenodd;stroke:none"
             id="path4723" />
        </g>
        <g
           id="g4725"
           transform="translate(404.4199,441.0186)">
          <path
             d="M 0,0 C 3.422,0 6.197,-2.216 6.197,-4.95 6.197,-7.683 3.422,-9.9 0,-9.9 c -3.424,0 -6.199,2.217 -6.199,4.95 C -6.199,-2.216 -3.424,0 0,0 m -17.59,12.783 c 5.602,0 10.141,-3.379 10.141,-7.545 0,-4.167 -4.539,-7.545 -10.141,-7.545 -5.599,0 -10.139,3.378 -10.139,7.545 0,4.166 4.54,7.545 10.139,7.545"
             style="fill:#de713e;fill-opacity:1;fill-rule:evenodd;stroke:none"
             id="path4727" />
        </g>
        <g
           id="g4729"
           transform="translate(183.0337,369.4512)">
          <path
             d="M 0,0 C 39.328,0 71.404,20.151 71.404,44.857 71.404,69.563 39.328,89.714 0,89.714 -39.329,89.714 -71.404,69.563 -71.404,44.857 -71.404,20.151 -39.329,0 0,0"
             style="fill:#87b027;fill-opacity:1;fill-rule:evenodd;stroke:none"
             id="path4731" />
        </g>
        <g
           id="g4733"
           transform="translate(163.666,454.8242)">
          <path
             d="M 0,0 C 23.847,2.048 43.18,-8.436 43.18,-23.418 43.18,-38.399 23.847,-52.204 0,-54.251 -23.848,-56.299 -43.181,-45.814 -43.181,-30.834 -43.181,-15.853 -23.848,-2.047 0,0"
             style="fill:#9ac421;fill-opacity:1;fill-rule:evenodd;stroke:none"
             id="path4735" />
        </g>
        <g
           id="g4737"
           transform="translate(233.1431,446.2598)">
          <path
             d="m 0,0 c 13.144,-8.136 21.294,-19.445 21.294,-31.952 0,-24.774 -31.969,-44.857 -71.404,-44.857 -27.095,0 -50.663,9.481 -62.762,23.449 12.891,-7.979 30.583,-12.905 50.11,-12.905 39.436,0 71.405,20.083 71.405,44.857 C 8.643,-13.656 5.511,-6.362 0,0"
             style="fill:#769a2a;fill-opacity:1;fill-rule:evenodd;stroke:none"
             id="path4739" />
        </g>
        <g
           id="g4741"
           transform="translate(218.3892,435.0869)">
          <path
             d="m 0,0 c 3.757,0 6.801,-2.431 6.801,-5.43 0,-2.999 -3.044,-5.43 -6.801,-5.43 -3.755,0 -6.799,2.431 -6.799,5.43 C -6.799,-2.431 -3.755,0 0,0 m -19.294,14.023 c 6.144,0 11.124,-3.707 11.124,-8.277 0,-4.571 -4.98,-8.276 -11.124,-8.276 -6.142,0 -11.122,3.705 -11.122,8.276 0,4.57 4.98,8.277 11.122,8.277"
             style="fill:#c6e446;fill-opacity:1;fill-rule:evenodd;stroke:none"
             id="path4743" />
        </g>
        <g
           id="g4745"
           transform="translate(303.5605,333.6875)">
          <path
             d="M 0,0 C 42.516,0 77.192,21.784 77.192,48.493 77.192,75.203 42.516,96.987 0,96.987 -42.518,96.987 -77.195,75.203 -77.195,48.493 -77.195,21.784 -42.518,0 0,0"
             style="fill:#ea3121;fill-opacity:1;fill-rule:evenodd;stroke:none"
             id="path4747" />
        </g>
        <g
           id="g4749"
           transform="translate(282.6226,425.9824)">
          <path
             d="m 0,0 c 25.78,2.214 46.68,-9.12 46.68,-25.316 0,-16.196 -20.9,-31.12 -46.68,-33.334 -25.782,-2.214 -46.682,9.121 -46.682,25.316 0,16.196 20.9,31.121 46.682,33.334"
             style="fill:#f14725;fill-opacity:1;fill-rule:evenodd;stroke:none"
             id="path4751" />
        </g>
        <g
           id="g4753"
           transform="translate(357.7324,416.7227)">
          <path
             d="m 0,0 c 14.209,-8.795 23.02,-21.021 23.02,-34.541 0,-26.783 -34.561,-48.493 -77.194,-48.493 -29.29,0 -54.771,10.248 -67.85,25.349 13.936,-8.627 33.064,-13.952 54.173,-13.952 42.632,0 77.195,21.711 77.195,48.494 C 9.344,-14.762 5.957,-6.878 0,0"
             style="fill:#cc2d23;fill-opacity:1;fill-rule:evenodd;stroke:none"
             id="path4755" />
        </g>
        <g
           id="g4757"
           transform="translate(341.7832,404.6445)">
          <path
             d="m 0,0 c 4.061,0 7.352,-2.628 7.352,-5.87 0,-3.241 -3.291,-5.87 -7.352,-5.87 -4.06,0 -7.352,2.629 -7.352,5.87 C -7.352,-2.628 -4.06,0 0,0 m -20.859,15.159 c 6.642,0 12.025,-4.006 12.025,-8.947 0,-4.941 -5.383,-8.947 -12.025,-8.947 -6.641,0 -12.024,4.006 -12.024,8.947 0,4.941 5.383,8.947 12.024,8.947"
             style="fill:#f8a08c;fill-opacity:1;fill-rule:evenodd;stroke:none"
             id="path4759" />
        </g>
        <g
           id="g4761"
           transform="translate(114.4355,304.9229)">
          <path
             d="M 0,0 C 38.299,0 69.537,19.623 69.537,43.684 69.537,67.743 38.299,87.367 0,87.367 -38.299,87.367 -69.538,67.743 -69.538,43.684 -69.538,19.623 -38.299,0 0,0"
             style="fill:#e7e8e1;fill-opacity:1;fill-rule:evenodd;stroke:none"
             id="path4763" />
        </g>
        <g
           id="g4765"
           transform="translate(95.1943,310.6211)">
          <path
             d="M 0,0 C 42.517,0 77.194,21.784 77.194,48.494 77.194,75.203 42.517,96.987 0,96.987 -42.517,96.987 -77.194,75.203 -77.194,48.494 -77.194,21.784 -42.517,0 0,0"
             style="fill:#ea3121;fill-opacity:1;fill-rule:evenodd;stroke:none"
             id="path4767" />
        </g>
        <g
           id="g4769"
           transform="translate(74.2559,402.9165)">
          <path
             d="m 0,0 c 25.781,2.214 46.682,-9.121 46.682,-25.316 0,-16.196 -20.901,-31.121 -46.682,-33.335 -25.781,-2.214 -46.681,9.121 -46.681,25.316 0,16.197 20.9,31.121 46.681,33.335"
             style="fill:#f14725;fill-opacity:1;fill-rule:evenodd;stroke:none"
             id="path4771" />
        </g>
        <g
           id="g4773"
           transform="translate(149.3667,393.6563)">
          <path
             d="m 0,0 c 14.209,-8.795 23.021,-21.021 23.021,-34.541 0,-26.782 -34.561,-48.493 -77.194,-48.493 -29.292,0 -54.771,10.248 -67.85,25.349 13.935,-8.626 33.063,-13.952 54.172,-13.952 42.633,0 77.194,21.711 77.194,48.494 C 9.343,-14.762 5.958,-6.878 0,0"
             style="fill:#cc2d23;fill-opacity:1;fill-rule:evenodd;stroke:none"
             id="path4775" />
        </g>
        <g
           id="g4777"
           transform="translate(133.417,381.5781)">
          <path
             d="m 0,0 c 4.06,0 7.352,-2.628 7.352,-5.87 0,-3.241 -3.292,-5.869 -7.352,-5.869 -4.06,0 -7.351,2.628 -7.351,5.869 C -7.351,-2.628 -4.06,0 0,0 m -20.857,15.159 c 6.64,0 12.024,-4.006 12.024,-8.947 0,-4.941 -5.384,-8.947 -12.024,-8.947 -6.642,0 -12.025,4.006 -12.025,8.947 0,4.941 5.383,8.947 12.025,8.947"
             style="fill:#f8a08c;fill-opacity:1;fill-rule:evenodd;stroke:none"
             id="path4779" />
        </g>
        <g
           id="g4781"
           transform="translate(195.958,288.9414)">
          <path
             d="m 0,0 c 46.29,0 84.046,23.719 84.046,52.799 0,29.079 -37.756,52.798 -84.046,52.798 -46.291,0 -84.046,-23.719 -84.046,-52.798 C -84.046,23.719 -46.291,0 0,0"
             style="fill:#892f1b;fill-opacity:1;fill-rule:evenodd;stroke:none"
             id="path4783" />
        </g>
        <g
           id="g4785"
           transform="translate(173.1611,389.4292)">
          <path
             d="M 0,0 C 28.07,2.41 50.825,-9.93 50.825,-27.564 50.825,-45.197 28.07,-61.447 0,-63.857 c -28.069,-2.41 -50.825,9.931 -50.825,27.564 C -50.825,-18.66 -28.069,-2.411 0,0"
             style="fill:#a33b1f;fill-opacity:1;fill-rule:evenodd;stroke:none"
             id="path4787" />
        </g>
        <g
           id="g4789"
           transform="translate(254.939,379.3477)">
          <path
             d="m 0,0 c 15.47,-9.576 25.064,-22.887 25.064,-37.607 0,-29.161 -37.629,-52.799 -84.046,-52.799 -31.891,0 -59.633,11.159 -73.873,27.6 15.173,-9.392 35.998,-15.19 58.982,-15.19 46.417,0 84.045,23.639 84.045,52.798 C 10.172,-16.073 6.486,-7.489 0,0"
             style="fill:#6b2516;fill-opacity:1;fill-rule:evenodd;stroke:none"
             id="path4791" />
        </g>
        <g
           id="g4793"
           transform="translate(237.5737,366.1973)">
          <path
             d="m 0,0 c 4.421,0 8.004,-2.862 8.004,-6.391 0,-3.529 -3.583,-6.391 -8.004,-6.391 -4.421,0 -8.004,2.862 -8.004,6.391 C -8.004,-2.862 -4.421,0 0,0 m -22.709,16.505 c 7.23,0 13.092,-4.362 13.092,-9.742 0,-5.38 -5.862,-9.742 -13.092,-9.742 -7.231,0 -13.092,4.362 -13.092,9.742 0,5.38 5.861,9.742 13.092,9.742"
             style="fill:#de713e;fill-opacity:1;fill-rule:evenodd;stroke:none"
             id="path4795" />
        </g>
        <g
           id="g4797"
           transform="translate(465.8379,283.7393)">
          <path
             d="M 0,0 C 43.063,0 78.182,22.063 78.182,49.115 78.182,76.166 43.063,98.229 0,98.229 -43.061,98.229 -78.182,76.166 -78.182,49.115 -78.182,22.063 -43.061,0 0,0"
             style="fill:#e7e8e1;fill-opacity:1;fill-rule:evenodd;stroke:none"
             id="path4799" />
        </g>
        <g
           id="g4801"
           transform="translate(442.1543,291.6846)">
          <path
             d="m 0,0 c 47.801,0 86.789,24.492 86.789,54.522 0,30.031 -38.988,54.523 -86.789,54.523 -47.803,0 -86.791,-24.492 -86.791,-54.523 C -86.791,24.492 -47.803,0 0,0"
             style="fill:#87b027;fill-opacity:1;fill-rule:evenodd;stroke:none"
             id="path4803" />
        </g>
        <g
           id="g4805"
           transform="translate(418.6133,395.4546)">
          <path
             d="M 0,0 C 28.986,2.489 52.484,-10.255 52.484,-28.464 52.484,-46.673 28.986,-63.453 0,-65.943 -28.986,-68.431 -52.484,-55.688 -52.484,-37.478 -52.484,-19.269 -28.986,-2.49 0,0"
             style="fill:#9ac421;fill-opacity:1;fill-rule:evenodd;stroke:none"
             id="path4807" />
        </g>
        <g
           id="g4809"
           transform="translate(503.0625,385.0435)">
          <path
             d="m 0,0 c 15.975,-9.888 25.881,-23.634 25.881,-38.836 0,-30.112 -38.858,-54.522 -86.791,-54.522 -32.932,0 -61.58,11.523 -76.285,28.501 15.67,-9.698 37.174,-15.686 60.908,-15.686 47.934,0 86.791,24.411 86.791,54.522 C 10.504,-16.597 6.697,-7.732 0,0"
             style="fill:#769a2a;fill-opacity:1;fill-rule:evenodd;stroke:none"
             id="path4811" />
        </g>
        <g
           id="g4813"
           transform="translate(485.1289,371.4639)">
          <path
             d="m 0,0 c 4.566,0 8.266,-2.955 8.266,-6.6 0,-3.644 -3.7,-6.6 -8.266,-6.6 -4.564,0 -8.266,2.956 -8.266,6.6 0,3.645 3.702,6.6 8.266,6.6 m -23.451,17.044 c 7.467,0 13.519,-4.504 13.519,-10.06 0,-5.556 -6.052,-10.06 -13.519,-10.06 -7.467,0 -13.52,4.504 -13.52,10.06 0,5.556 6.053,10.06 13.52,10.06"
             style="fill:#c6e446;fill-opacity:1;fill-rule:evenodd;stroke:none"
             id="path4815" />
        </g>
        <g
           id="g4817"
           transform="translate(337.498,249.9785)">
          <path
             d="M 0,0 C 47.139,0 85.586,24.152 85.586,53.766 85.586,83.378 47.139,107.53 0,107.53 -47.137,107.53 -85.583,83.378 -85.583,53.766 -85.583,24.152 -47.137,0 0,0"
             style="fill:#fab40a;fill-opacity:1;fill-rule:evenodd;stroke:none"
             id="path4819" />
        </g>
        <g
           id="g4821"
           transform="translate(314.2852,352.3062)">
          <path
             d="M 0,0 C 28.584,2.456 51.756,-10.112 51.756,-28.068 51.756,-46.024 28.584,-62.57 0,-65.025 -28.583,-67.479 -51.755,-54.914 -51.755,-36.957 -51.755,-19 -28.583,-2.454 0,0"
             style="fill:#f9de1c;fill-opacity:1;fill-rule:evenodd;stroke:none"
             id="path4823" />
        </g>
        <g
           id="g4825"
           transform="translate(397.5605,342.041)">
          <path
             d="m 0,0 c 15.754,-9.751 25.524,-23.307 25.524,-38.297 0,-29.693 -38.319,-53.764 -85.587,-53.764 -32.474,0 -60.725,11.363 -75.225,28.105 15.452,-9.564 36.659,-15.467 60.062,-15.467 47.267,0 85.584,24.07 85.584,53.764 C 10.358,-16.367 6.605,-7.626 0,0"
             style="fill:#f39c0f;fill-opacity:1;fill-rule:evenodd;stroke:none"
             id="path4827" />
        </g>
        <g
           id="g4829"
           transform="translate(379.8789,328.6494)">
          <path
             d="m 0,0 c 4.5,0 8.148,-2.914 8.148,-6.508 0,-3.594 -3.648,-6.509 -8.148,-6.509 -4.504,0 -8.152,2.915 -8.152,6.509 C -8.152,-2.914 -4.504,0 0,0 m -23.127,16.807 c 7.363,0 13.332,-4.441 13.332,-9.92 0,-5.479 -5.969,-9.92 -13.332,-9.92 -7.363,0 -13.332,4.441 -13.332,9.92 0,5.479 5.969,9.92 13.332,9.92"
             style="fill:#fcf894;fill-opacity:1;fill-rule:evenodd;stroke:none"
             id="path4831" />
        </g>
        <g
           id="g4833"
           transform="translate(117.1206,209.875)">
          <path
             d="m 0,0 c 52.657,0 95.605,26.979 95.605,60.059 0,33.079 -42.948,60.059 -95.605,60.059 -52.658,0 -95.605,-26.98 -95.605,-60.059 C -95.605,26.979 -52.658,0 0,0"
             style="fill:#87b027;fill-opacity:1;fill-rule:evenodd;stroke:none"
             id="path4835" />
        </g>
        <g
           id="g4837"
           transform="translate(91.189,324.1826)">
          <path
             d="M 0,0 C 31.93,2.741 57.815,-11.296 57.815,-31.355 57.815,-51.413 31.93,-69.896 0,-72.64 -31.93,-75.382 -57.816,-61.344 -57.816,-41.284 -57.816,-21.226 -31.93,-2.742 0,0"
             style="fill:#9ac421;fill-opacity:1;fill-rule:evenodd;stroke:none"
             id="path4839" />
        </g>
        <g
           id="g4841"
           transform="translate(184.2144,312.7139)">
          <path
             d="m 0,0 c 17.598,-10.893 28.511,-26.035 28.511,-42.78 0,-33.17 -42.803,-60.059 -95.605,-60.059 -36.278,0 -67.835,12.693 -84.034,31.396 17.26,-10.685 40.949,-17.28 67.094,-17.28 52.802,0 95.605,26.89 95.605,60.06 C 11.571,-18.282 7.378,-8.519 0,0"
             style="fill:#769a2a;fill-opacity:1;fill-rule:evenodd;stroke:none"
             id="path4843" />
        </g>
        <g
           id="g4845"
           transform="translate(164.4604,297.7549)">
          <path
             d="m 0,0 c 5.029,0 9.105,-3.256 9.105,-7.27 0,-4.015 -4.076,-7.27 -9.105,-7.27 -5.028,0 -9.104,3.255 -9.104,7.27 C -9.104,-3.256 -5.028,0 0,0 m -25.833,18.775 c 8.225,0 14.893,-4.961 14.893,-11.082 0,-6.12 -6.668,-11.082 -14.893,-11.082 -8.225,0 -14.892,4.962 -14.892,11.082 0,6.121 6.667,11.082 14.892,11.082"
             style="fill:#c6e446;fill-opacity:1;fill-rule:evenodd;stroke:none"
             id="path4847" />
        </g>
        <g
           id="g4849"
           transform="translate(287.9858,179.6885)">
          <path
             d="m 0,0 c 45.756,0 83.077,23.444 83.077,52.189 0,28.745 -37.321,52.187 -83.077,52.187 -45.758,0 -83.077,-23.442 -83.077,-52.187 C -83.077,23.444 -45.758,0 0,0"
             style="fill:#e7e8e1;fill-opacity:1;fill-rule:evenodd;stroke:none"
             id="path4851" />
        </g>
        <g
           id="g4853"
           transform="translate(264.9976,186.4961)">
          <path
             d="m 0,0 c 50.795,0 92.223,26.027 92.223,57.936 0,31.909 -41.428,57.935 -92.223,57.935 -50.796,0 -92.224,-26.026 -92.224,-57.935 C -92.224,26.027 -50.796,0 0,0"
             style="fill:#ea3121;fill-opacity:1;fill-rule:evenodd;stroke:none"
             id="path4855" />
        </g>
        <g
           id="g4857"
           transform="translate(239.9829,296.7617)">
          <path
             d="M 0,0 C 30.801,2.645 55.769,-10.897 55.769,-30.246 55.769,-49.594 30.801,-67.425 0,-70.07 c -30.801,-2.646 -55.771,10.896 -55.771,30.246 0,19.348 24.97,37.178 55.771,39.824"
             style="fill:#f14725;fill-opacity:1;fill-rule:evenodd;stroke:none"
             id="path4859" />
        </g>
        <g
           id="g4861"
           transform="translate(329.7188,285.6992)">
          <path
             d="m 0,0 c 16.975,-10.507 27.502,-25.114 27.502,-41.268 0,-31.996 -41.291,-57.935 -92.223,-57.935 -34.995,0 -65.436,12.245 -81.062,30.287 16.649,-10.307 39.5,-16.669 64.72,-16.669 50.934,0 92.223,25.939 92.223,57.936 C 11.16,-17.637 7.117,-8.217 0,0"
             style="fill:#cc2d23;fill-opacity:1;fill-rule:evenodd;stroke:none"
             id="path4863" />
        </g>
        <g
           id="g4865"
           transform="translate(310.6621,271.2686)">
          <path
             d="m 0,0 c 4.854,0 8.783,-3.14 8.783,-7.012 0,-3.874 -3.929,-7.013 -8.783,-7.013 -4.85,0 -8.781,3.139 -8.781,7.013 C -8.781,-3.14 -4.85,0 0,0 m -24.918,18.112 c 7.933,0 14.365,-4.787 14.365,-10.689 0,-5.905 -6.432,-10.691 -14.365,-10.691 -7.935,0 -14.367,4.786 -14.367,10.691 0,5.902 6.432,10.689 14.367,10.689"
             style="fill:#f8a08c;fill-opacity:1;fill-rule:evenodd;stroke:none"
             id="path4867" />
        </g>
        <g
           id="g4869"
           transform="translate(478.7441,211.8701)">
          <path
             d="M 0,0 C 50.795,0 92.225,26.024 92.225,57.935 92.225,89.844 50.795,115.87 0,115.87 -50.795,115.87 -92.223,89.844 -92.223,57.935 -92.223,26.024 -50.795,0 0,0"
             style="fill:#ea3121;fill-opacity:1;fill-rule:evenodd;stroke:none"
             id="path4871" />
        </g>
        <g
           id="g4873"
           transform="translate(453.7305,322.1348)">
          <path
             d="m 0,0 c 30.801,2.646 55.77,-10.897 55.77,-30.246 0,-19.35 -24.969,-37.18 -55.77,-39.824 -30.801,-2.645 -55.771,10.896 -55.771,30.246 0,19.349 24.97,37.178 55.771,39.824"
             style="fill:#f14725;fill-opacity:1;fill-rule:evenodd;stroke:none"
             id="path4875" />
        </g>
        <g
           id="g4877"
           transform="translate(543.4648,311.0723)">
          <path
             d="m 0,0 c 16.977,-10.508 27.504,-25.114 27.504,-41.268 0,-31.996 -41.291,-57.934 -92.225,-57.934 -34.994,0 -65.435,12.244 -81.062,30.284 16.65,-10.306 39.502,-16.666 64.72,-16.666 50.936,0 92.225,25.936 92.225,57.934 C 11.162,-17.637 7.117,-8.218 0,0"
             style="fill:#cc2d23;fill-opacity:1;fill-rule:evenodd;stroke:none"
             id="path4879" />
        </g>
        <g
           id="g4881"
           transform="translate(524.4102,296.6426)">
          <path
             d="m 0,0 c 4.852,0 8.783,-3.14 8.783,-7.014 0,-3.872 -3.931,-7.013 -8.783,-7.013 -4.85,0 -8.783,3.141 -8.783,7.013 C -8.783,-3.14 -4.85,0 0,0 m -24.92,18.11 c 7.934,0 14.367,-4.785 14.367,-10.689 0,-5.904 -6.433,-10.69 -14.367,-10.69 -7.934,0 -14.365,4.786 -14.365,10.69 0,5.904 6.431,10.689 14.365,10.689"
             style="fill:#f8a08c;fill-opacity:1;fill-rule:evenodd;stroke:none"
             id="path4883" />
        </g>
        <g
           id="g4885"
           transform="translate(401.3281,154.7314)">
          <path
             d="m 0,0 c 55.365,0 100.523,28.365 100.523,63.147 0,34.783 -45.158,63.15 -100.523,63.15 -55.367,0 -100.523,-28.367 -100.523,-63.15 C -100.523,28.365 -55.367,0 0,0"
             style="fill:#892f1b;fill-opacity:1;fill-rule:evenodd;stroke:none"
             id="path4887" />
        </g>
        <g
           id="g4889"
           transform="translate(374.0605,274.918)">
          <path
             d="M 0,0 C 33.574,2.884 60.791,-11.877 60.791,-32.968 60.791,-54.058 33.574,-73.492 0,-76.376 -33.57,-79.258 -60.787,-64.498 -60.787,-43.408 -60.787,-22.316 -33.57,-2.882 0,0"
             style="fill:#a33b1f;fill-opacity:1;fill-rule:evenodd;stroke:none"
             id="path4891" />
        </g>
        <g
           id="g4893"
           transform="translate(471.8711,262.8604)">
          <path
             d="m 0,0 c 18.504,-11.453 29.978,-27.374 29.978,-44.981 0,-34.876 -45.005,-63.148 -100.521,-63.148 -38.145,0 -71.324,13.346 -88.357,33.011 18.148,-11.234 43.054,-18.168 70.545,-18.168 55.517,0 100.523,28.272 100.523,63.148 C 12.168,-19.225 7.76,-8.958 0,0"
             style="fill:#6b2516;fill-opacity:1;fill-rule:evenodd;stroke:none"
             id="path4895" />
        </g>
        <g
           id="g4897"
           transform="translate(451.1016,247.1309)">
          <path
             d="m 0,0 c 5.289,0 9.574,-3.422 9.574,-7.644 0,-4.22 -4.285,-7.643 -9.574,-7.643 -5.285,0 -9.572,3.423 -9.572,7.643 C -9.572,-3.422 -5.285,0 0,0 m -27.16,19.742 c 8.646,0 15.656,-5.218 15.656,-11.652 0,-6.435 -7.01,-11.652 -15.656,-11.652 -8.649,0 -15.66,5.217 -15.66,11.652 0,6.434 7.011,11.652 15.66,11.652"
             style="fill:#de713e;fill-opacity:1;fill-rule:evenodd;stroke:none"
             id="path4899" />
        </g>
        <g
           id="g4901"
           transform="translate(153.2285,144.6504)">
          <path
             d="m 0,0 c 55.498,0 100.761,28.436 100.761,63.298 0,34.864 -45.263,63.3 -100.761,63.3 -55.497,0 -100.761,-28.436 -100.761,-63.3 C -100.761,28.436 -55.497,0 0,0"
             style="fill:#fab40a;fill-opacity:1;fill-rule:evenodd;stroke:none"
             id="path4903" />
        </g>
        <g
           id="g4905"
           transform="translate(125.8979,265.123)">
          <path
             d="M 0,0 C 33.653,2.89 60.933,-11.906 60.933,-33.045 60.933,-54.186 33.653,-73.666 0,-76.558 -33.652,-79.445 -60.933,-64.651 -60.933,-43.511 -60.933,-22.37 -33.652,-2.891 0,0"
             style="fill:#f9de1c;fill-opacity:1;fill-rule:evenodd;stroke:none"
             id="path4907" />
        </g>
        <g
           id="g4909"
           transform="translate(223.9399,253.0371)">
          <path
             d="m 0,0 c 18.547,-11.48 30.049,-27.439 30.049,-45.088 0,-34.959 -45.112,-63.299 -100.761,-63.299 -38.234,0 -71.492,13.378 -88.565,33.09 18.19,-11.261 43.157,-18.211 70.712,-18.211 55.648,0 100.76,28.338 100.76,63.298 C 12.195,-19.27 7.776,-8.979 0,0"
             style="fill:#f39c0f;fill-opacity:1;fill-rule:evenodd;stroke:none"
             id="path4911" />
        </g>
        <g
           id="g4913"
           transform="translate(203.1216,237.2715)">
          <path
             d="m 0,0 c 5.299,0 9.595,-3.432 9.595,-7.664 0,-4.23 -4.296,-7.661 -9.595,-7.661 -5.3,0 -9.596,3.431 -9.596,7.661 C -9.596,-3.432 -5.3,0 0,0 m -27.227,19.787 c 8.669,0 15.696,-5.229 15.696,-11.681 0,-6.449 -7.027,-11.677 -15.696,-11.677 -8.669,0 -15.695,5.228 -15.695,11.677 0,6.452 7.026,11.681 15.695,11.681"
             style="fill:#fcf894;fill-opacity:1;fill-rule:evenodd;stroke:none"
             id="path4915" />
        </g>
      </g>
    </g>
  </g>
</svg>
